<svg xmlns="http://www.w3.org/2000/svg" viewBox="0 0 8.2 18"><defs><style>.cls-1{fill:#fff;}</style></defs><title>file-attach</title><g id="Слой_2" data-name="Слой 2"><g id="Слой_1-2" data-name="Слой 1"><path class="cls-1" d="M7.65,5.21a.55.55,0,0,0-.57.55v8.16A2.83,2.83,0,0,1,6.2,16a2.84,2.84,0,0,1-2.12.89A2.83,2.83,0,0,1,2,16a2.83,2.83,0,0,1-.88-2.1V3.15a2,2,0,0,1,.6-1.42,2,2,0,0,1,1.44-.62,2,2,0,0,1,1.45.62,2,2,0,0,1,.59,1.42v9.16a1,1,0,0,1-1,1,1,1,0,0,1-1-1V7.55a.55.55,0,1,0-1.1,0v4.76a2.08,2.08,0,0,0,.61,1.51,2,2,0,0,0,1.49.61,2.1,2.1,0,0,0,1.51-.61,2,2,0,0,0,.61-1.51V3.15A3.06,3.06,0,0,0,5.36.93,3,3,0,0,0,3.14,0,3,3,0,0,0,.92.93,3.06,3.06,0,0,0,0,3.15V13.92a4,4,0,0,0,1.19,2.89A4,4,0,0,0,4.08,18,4,4,0,0,0,7,16.82a4,4,0,0,0,1.2-2.9V5.76A.54.54,0,0,0,7.65,5.21Z"/></g></g></svg>