<svg xmlns="http://www.w3.org/2000/svg" viewBox="0 0 54 54"><defs><style>.cls-1{fill:#c20936;}.cls-2{opacity:0;}</style></defs><title>headphones</title><g id="Слой_2" data-name="Слой 2"><g id="Слой_1-2" data-name="Слой 1"><path class="cls-1" d="M27,21a6,6,0,0,0-6,6v5.53a.42.42,0,0,0,.42.42h2.19a.42.42,0,0,0,.42-.42V27.49a.42.42,0,0,0-.42-.42H21.85V27a5.15,5.15,0,1,1,10.3,0v.05H30.39a.42.42,0,0,0-.42.42v5.06a.42.42,0,0,0,.42.42h2.19a.42.42,0,0,0,.42-.42V27A6,6,0,0,0,27,21Zm-3.81,6.89v4.22H21.84V27.91h1.34Zm9,.51v3.71H30.81V27.93h1.33Z"/><g class="cls-2"><path d="M27,1A26,26,0,1,1,1,27,26,26,0,0,1,27,1m0-1A27,27,0,1,0,54,27,27,27,0,0,0,27,0Z"/></g></g></g></svg>