<svg xmlns="http://www.w3.org/2000/svg" viewBox="0 0 414.04 63.62"><defs><style>.cls-1{fill:#c30032;}</style></defs><title>Asset 1</title><g id="Layer_2" data-name="Layer 2"><g id="Layer_1-2" data-name="Layer 1"><path class="cls-1" d="M27.08,10.56C8.86,10.56,0,18.67,0,35.33V63.62H11.31V35.33c0-7.88,1.13-13.45,15.77-13.45s15.76,5.57,15.76,13.45V63.62H54.16V35.33C54.16,18.67,45.3,10.56,27.08,10.56Z"/><path class="cls-1" d="M196.2,54.66a.69.69,0,0,1-.7.55.68.68,0,0,1-.69-.55l-8.17-35.37a11.21,11.21,0,0,0-11-8.73h-2.28a11.21,11.21,0,0,0-11,8.73l-8.17,35.37a.68.68,0,0,1-.69.55.69.69,0,0,1-.7-.55l-10.18-44.1H131.07L141.3,54.89a11.22,11.22,0,0,0,11,8.73h2.55a11.22,11.22,0,0,0,11-8.73l8-34.75a.7.7,0,0,1,.7-.56.69.69,0,0,1,.69.56l8,34.75a11.21,11.21,0,0,0,11,8.73h2.56a11.21,11.21,0,0,0,11-8.73L218,10.56H206.38Z"/><path class="cls-1" d="M401,10.56,383.89,40.15a.74.74,0,0,1-1.24,0L365.57,10.56H352.51l25.11,43.49v9.57h11.31V54.05L414,10.56Z"/><path class="cls-1" d="M321,10.56c-16.8,0-28.09,10.66-28.09,26.53S304.18,63.62,321,63.62c7,0,13.31-1.9,18.15-5.5l1.45,5.5h8.48V37.09C349.06,21.22,337.77,10.56,321,10.56Zm16.77,26.53c0,9.53-6.27,15.22-16.77,15.22s-16.77-5.69-16.77-15.22S310.47,21.88,321,21.88,337.75,27.56,337.75,37.09Z"/><path class="cls-1" d="M270.08,15.1a30.85,30.85,0,0,0-16.77-4.54c-16.8,0-28.08,10.66-28.08,26.53s11.28,26.53,28.08,26.53c16.46,0,27.69-10.32,28.07-25.73L281.4,0H270.08ZM253.31,52.31c-10.5,0-16.77-5.69-16.77-15.22s6.27-15.21,16.77-15.21,16.77,5.68,16.77,15.21S263.81,52.31,253.31,52.31Z"/><path class="cls-1" d="M94.8,10.56c-16.8,0-28.09,10.66-28.09,26.53S78,63.62,94.8,63.62c17.42,0,25-6,25.36-6.3l.21-.17-3.25-8.43-.37.17c-3.5,1.63-11,4.38-22,4.38-8.72,0-15-3.83-17.19-10.52h44.75l.06-.31a31.58,31.58,0,0,0,.46-5.35C122.88,21.22,111.59,10.56,94.8,10.56Zm17.46,21.73H77.33c1.94-7.24,8.28-11.37,17.47-11.37S110.32,25.05,112.26,32.29Z"/></g></g></svg>