<svg xmlns="http://www.w3.org/2000/svg" viewBox="0 0 78 86"><defs><style>.cls-1{fill:#c30032;}</style></defs><title>turn_phone</title><g id="Слой_2" data-name="Слой 2"><g id="Слой_1-2" data-name="Слой 1"><path class="cls-1" d="M0,81a5,5,0,0,0,5,5H73a5,5,0,0,0,5-5V5a5,5,0,0,0-5-5H41a5,5,0,0,0-5,5V39a1,1,0,0,0,2,0V8H76V45a4.84,4.84,0,0,0-2.87-1H5a5,5,0,0,0-5,5ZM0,35.19a1,1,0,0,0,1.09.9A1,1,0,0,0,2,35,25,25,0,0,1,25.25,10L22.13,15.5a1,1,0,0,0,.37,1.38,1,1,0,0,0,1.38-.38l4-7a1,1,0,0,0-.37-1.37h0l-7-4a1,1,0,0,0-1.37.34,1,1,0,0,0-.13.73,1,1,0,0,0,.5.69l4.06,2.31A27,27,0,0,0,0,35v.19ZM2,81V49a3,3,0,0,1,3-3H6V84H5A3,3,0,0,1,2,81Zm6,3V46H64V84ZM38,6V5a3,3,0,0,1,3-3H73a3,3,0,0,1,3,3V6ZM66,84V46h7.13a3,3,0,0,1,2.71,1.72A1.32,1.32,0,0,0,76,48V81a3,3,0,0,1-3,3Zm4-15.75A1,1,0,1,0,72,68V62a1,1,0,1,0-2,0v6.31Z"/></g></g></svg>