<?xml version="1.0" encoding="utf-8"?>
<!-- Generator: Adobe Illustrator 23.0.1, SVG Export Plug-In . SVG Version: 6.00 Build 0)  -->
<svg version="1.1" id="Layer_1" xmlns="http://www.w3.org/2000/svg" xmlns:xlink="http://www.w3.org/1999/xlink" x="0px" y="0px"
	 viewBox="0 0 150 50" style="enable-background:new 0 0 150 50;" xml:space="preserve">
<style type="text/css">
	.st0{fill:#FFFFFF;}
</style>
<g>
	<path class="st0" d="M3.9,26.3h144.8c0.7,0,1.3-0.6,1.3-1.2l0,0c0-0.7-0.6-1.2-1.3-1.2H3.9c-0.7,0-1.2,0.6-1.2,1.2l0,0
		C2.7,25.7,3.2,26.3,3.9,26.3z"/>
	<path class="st0" d="M0,25c0,0.1,0,0.2,0.1,0.2L7,30h0.1h0.1c0.1,0,0.1-0.1,0.1-0.2v-9.5c0-0.1,0-0.2-0.1-0.2s-0.2,0-0.2,0
		l-6.9,4.8C0,24.8,0,24.9,0,25z"/>
</g>
</svg>
