<?xml version="1.0" encoding="utf-8"?>
<!-- Generator: Adobe Illustrator 23.0.1, SVG Export Plug-In . SVG Version: 6.00 Build 0)  -->
<svg version="1.1" id="Layer_1" xmlns="http://www.w3.org/2000/svg" xmlns:xlink="http://www.w3.org/1999/xlink" x="0px" y="0px"
	 viewBox="0 0 150 50" style="enable-background:new 0 0 150 50;" xml:space="preserve">
<style type="text/css">
	.st0{fill:#FFFFFF;}
</style>
<g>
	<path class="st0" d="M1.2,26.3H146c0.7,0,1.3-0.6,1.3-1.2l0,0c0-0.7-0.6-1.2-1.3-1.2H1.2C0.6,23.8,0,24.3,0,25l0,0
		C0,25.7,0.6,26.3,1.2,26.3z"/>
	<path class="st0" d="M149.9,24.8L143,20c-0.1-0.1-0.2-0.1-0.2,0c-0.1,0-0.1,0.1-0.1,0.2v9.5c0,0.1,0,0.2,0.1,0.2h0.1h0.1l6.9-4.8
		c0.1,0,0.1-0.1,0.1-0.2C150,24.9,150,24.8,149.9,24.8z"/>
</g>
</svg>
