<?xml version="1.0" encoding="utf-8"?>
<!-- Generator: Adobe Illustrator 23.0.1, SVG Export Plug-In . SVG Version: 6.00 Build 0)  -->
<svg version="1.1" id="Layer_1" xmlns="http://www.w3.org/2000/svg" xmlns:xlink="http://www.w3.org/1999/xlink" x="0px" y="0px"
	 viewBox="0 0 150 150" style="enable-background:new 0 0 150 150;" xml:space="preserve">
<style type="text/css">
	.st0{fill:#FFFFFF;}
</style>
<g>
	<g>
		<path class="st0" d="M30.2,130.3h-9.7v19.2h9.1l2.6-2.6v-14.2L30.2,130.3z M27.9,145.4h-2.8v-10.1l-1.9-1.3h1.9h2.8V145.4z"/>
		<rect x="36.4" y="130.3" class="st0" width="5" height="19.2"/>
		<polygon class="st0" points="53.2,136.1 57.7,136.1 57.7,132.3 55.2,130.3 47.9,130.3 45.9,132.3 45.9,139.6 48.3,141.6 
			53.3,141.6 53.2,145.5 50.3,145.5 50.3,143.3 45.9,143.3 45.9,147 48.3,149.5 55.2,149.5 57.7,147.4 57.7,139.9 55.3,137.7 
			50.5,137.9 50.3,135 48.3,134 53.2,134.1 		"/>
		<path class="st0" d="M76.2,147.3l-2.6-6.4l2-1.7v-6.6l-2.3-2.2H61.7l2.1,2.5v16.7h4.5v-7.8h1.5l2.6,7.8H79L76.2,147.3z
			 M71.1,137.7h-2.8v-2.7l-1.7-1.1h4.5V137.7z"/>
		<polygon class="st0" points="81.8,130.3 88.1,130.3 88.1,144.8 90.9,144.8 90.9,130.3 95.2,130.3 95.2,146.9 92.7,149.3 
			85.7,149.3 83.8,146.9 83.8,132.6 		"/>
		<path class="st0" d="M110.8,130.3H99.2l2.4,2v17.2h4.2v-6.6h4.8l2.3-2.3v-8.4L110.8,130.3z M108.6,138.8l-0.4,0.3h-2.6V135l-1.6-1
			h4.6V138.8z"/>
		<path class="st0" d="M129.5,136.1v-5.8h-5.9h-5.9v5.8c0,0,2.6-2.1,3.8-1.7v13.2l-1.8,1.8h3.9h3.9l-1.8-1.8v-13.2
			C126.9,134,129.5,136.1,129.5,136.1z"/>
	</g>
	<polygon class="st0" points="72.6,124.3 34,66.4 66,46 66,27 3.4,27 20.5,0.5 20.5,18.1 72.6,18.1 	"/>
	<polygon class="st0" points="77.4,124.3 116,66.4 84,46 84,27 146.6,27 129.5,0.5 129.5,18.1 77.4,18.1 	"/>
</g>
</svg>
