<?xml version="1.0" encoding="utf-8"?>
<!-- Generator: Adobe Illustrator 23.0.1, SVG Export Plug-In . SVG Version: 6.00 Build 0)  -->
<svg version="1.1" id="Layer_1" xmlns="http://www.w3.org/2000/svg" xmlns:xlink="http://www.w3.org/1999/xlink" x="0px" y="0px"
	 viewBox="0 0 30 30" style="enable-background:new 0 0 30 30;" xml:space="preserve">
<style type="text/css">
	.st0{clip-path:url(#SVGID_2_);}
	.st1{fill:url(#SVGID_3_);}
	.st2{fill:url(#SVGID_4_);}
	.st3{fill:url(#SVGID_5_);}
	.st4{clip-path:url(#SVGID_7_);}
	.st5{fill:url(#SVGID_8_);}
	.st6{fill:url(#SVGID_9_);}
	.st7{fill:url(#SVGID_10_);}
	.st8{fill:url(#SVGID_11_);}
	.st9{fill:url(#SVGID_12_);}
	.st10{fill:#FFFFFF;}
</style>
<g>
	<g>
		<g>
			<defs>
				<circle id="SVGID_1_" cx="15" cy="15" r="15"/>
			</defs>
			<clipPath id="SVGID_2_">
				<use xlink:href="#SVGID_1_"  style="overflow:visible;"/>
			</clipPath>
			<g class="st0">
				
					<radialGradient id="SVGID_3_" cx="6.0681" cy="232.2922" r="33.2735" gradientTransform="matrix(1 0 0 1 1.831055e-04 -206)" gradientUnits="userSpaceOnUse">
					<stop  offset="0" style="stop-color:#FAE100"/>
					<stop  offset="5.440000e-02" style="stop-color:#FADC04"/>
					<stop  offset="0.1167" style="stop-color:#FBCE0E"/>
					<stop  offset="0.1829" style="stop-color:#FCB720"/>
					<stop  offset="0.2514" style="stop-color:#FE9838"/>
					<stop  offset="0.3054" style="stop-color:#FF7950"/>
					<stop  offset="0.4922" style="stop-color:#FF1C74"/>
					<stop  offset="1" style="stop-color:#6C1CD1"/>
				</radialGradient>
				<path class="st1" d="M29.5,5.3c-0.3-2.6-2.3-4.6-4.9-4.9c-6.5-0.7-12.9-0.7-19.4,0C2.7,0.7,0.7,2.7,0.4,5.3
					c-0.7,6.5-0.7,12.9,0,19.4c0.3,2.6,2.3,4.6,4.9,4.9c6.5,0.7,12.9,0.7,19.4,0c2.6-0.3,4.6-2.3,4.9-4.9
					C30.2,18.2,30.2,11.8,29.5,5.3z"/>
				
					<linearGradient id="SVGID_4_" gradientUnits="userSpaceOnUse" x1="11.4551" y1="219.034" x2="-39.6584" y2="190.2827" gradientTransform="matrix(1 0 0 1 1.831055e-04 -206)">
					<stop  offset="0" style="stop-color:#A1B5D8;stop-opacity:0"/>
					<stop  offset="0.3094" style="stop-color:#90A2BD;stop-opacity:0.3098"/>
					<stop  offset="0.7554" style="stop-color:#7C8B9C;stop-opacity:0.7569"/>
					<stop  offset="1" style="stop-color:#748290"/>
				</linearGradient>
				<path class="st2" d="M27.9,6.4c-0.2-2.3-2-4.1-4.3-4.3c-5.7-0.6-11.5-0.6-17.2,0C4.1,2.3,2.3,4.1,2,6.4
					c-0.6,5.7-0.6,11.5,0,17.2c0.2,2.3,2,4.1,4.3,4.3c5.7,0.6,11.5,0.6,17.2,0c2.3-0.2,4.1-2,4.3-4.3C28.5,17.9,28.5,12.1,27.9,6.4z
					"/>
				
					<linearGradient id="SVGID_5_" gradientUnits="userSpaceOnUse" x1="14.9687" y1="232.5584" x2="14.9687" y2="237.2614" gradientTransform="matrix(1 0 0 1 1.831055e-04 -206)">
					<stop  offset="0" style="stop-color:#FAE100;stop-opacity:0"/>
					<stop  offset="0.3068" style="stop-color:#FCA800;stop-opacity:0.3059"/>
					<stop  offset="0.6275" style="stop-color:#FE7300;stop-opacity:0.6275"/>
					<stop  offset="0.8685" style="stop-color:#FF5200;stop-opacity:0.8667"/>
					<stop  offset="1" style="stop-color:#FF4500"/>
				</linearGradient>
				<path class="st3" d="M0.3,24.1c0,0.2,0,0.4,0.1,0.6c0.3,2.6,2.3,4.6,4.9,4.9c6.5,0.7,12.9,0.7,19.4,0c2.6-0.3,4.6-2.3,4.9-4.9
					c0-0.2,0-0.4,0.1-0.6L0.3,24.1L0.3,24.1z"/>
			</g>
		</g>
	</g>
	<g>
		<g>
			<defs>
				<ellipse id="SVGID_6_" cx="15" cy="15" rx="15" ry="15"/>
			</defs>
			<clipPath id="SVGID_7_">
				<use xlink:href="#SVGID_6_"  style="overflow:visible;"/>
			</clipPath>
			<g class="st4">
				
					<linearGradient id="SVGID_8_" gradientUnits="userSpaceOnUse" x1="21.9792" y1="228.0209" x2="7.0101" y2="213.0518" gradientTransform="matrix(1 0 0 1 1.831055e-04 -206)">
					<stop  offset="0" style="stop-color:#833AB4;stop-opacity:0"/>
					<stop  offset="1" style="stop-color:#833AB4"/>
				</linearGradient>
				<path class="st5" d="M18.5,11.7c-0.9-1-2.2-1.6-3.6-1.6c-2.7,0-4.8,2.2-4.8,4.8c0,1.4,0.6,2.7,1.6,3.6l11.2,11.2
					c0.6-0.1,1.2-0.1,1.8-0.2c2.6-0.3,4.6-2.3,4.9-4.9c0.1-0.6,0.1-1.2,0.2-1.8L18.5,11.7z"/>
				<g>
					
						<linearGradient id="SVGID_9_" gradientUnits="userSpaceOnUse" x1="13.2459" y1="219.2514" x2="5.779" y2="211.7846" gradientTransform="matrix(1 0 0 1 1.831055e-04 -206)">
						<stop  offset="0" style="stop-color:#833AB4;stop-opacity:0"/>
						<stop  offset="1" style="stop-color:#833AB4"/>
					</linearGradient>
					<path class="st6" d="M29.5,24.7c0.4-3.5,0.5-6.9,0.5-10.4l-6.9-6.9c-0.9-1-2.1-1.6-3.6-1.7c-3-0.1-6.1-0.1-9.1,0
						C7.9,5.8,6.1,7.5,5.7,10c-0.1,0.4-0.1,0.9-0.2,1.3v7.3c0,0.2,0.1,0.5,0.1,0.7c0.1,1.5,0.7,2.8,1.7,3.7l7,7
						c3.4,0,6.9-0.1,10.3-0.5C27.2,29.3,29.3,27.3,29.5,24.7z"/>
					
						<linearGradient id="SVGID_10_" gradientUnits="userSpaceOnUse" x1="20.561" y1="233.5202" x2="16.8342" y2="215.9509" gradientTransform="matrix(1 0 0 1 1.831055e-04 -206)">
						<stop  offset="0" style="stop-color:#833AB4;stop-opacity:0"/>
						<stop  offset="1" style="stop-color:#833AB4"/>
					</linearGradient>
					<path class="st7" d="M29.5,24.7c-0.3,2.6-2.3,4.6-4.9,4.9c-3.4,0.4-6.9,0.5-10.3,0.5l-7-7c0.8,0.7,1.9,1.1,3.1,1.2
						c3,0.1,6.1,0.1,9.1,0c2.8-0.1,4.7-2.1,4.8-4.9c0.1-2.9,0.1-5.8,0-8.8c0-1.3-0.5-2.4-1.2-3.2l6.9,6.9
						C30.1,17.8,29.9,21.2,29.5,24.7z"/>
					
						<linearGradient id="SVGID_11_" gradientUnits="userSpaceOnUse" x1="23.0895" y1="218.9635" x2="18.1395" y2="214.0135" gradientTransform="matrix(1 0 0 1 1.831055e-04 -206)">
						<stop  offset="0" style="stop-color:#833AB4;stop-opacity:0"/>
						<stop  offset="1" style="stop-color:#833AB4"/>
					</linearGradient>
					<path class="st8" d="M30,18.3l-9-9c-0.2-0.3-0.5-0.5-0.9-0.5c-0.6,0-1.1,0.5-1.1,1.1c0,0.4,0.2,0.7,0.5,0.9l10.4,10.4
						C29.9,20.3,30,19.3,30,18.3z"/>
				</g>
			</g>
		</g>
	</g>
	
		<linearGradient id="SVGID_12_" gradientUnits="userSpaceOnUse" x1="20.9593" y1="215.0617" x2="8.7544" y2="227.2666" gradientTransform="matrix(1 0 0 1 1.831055e-04 -206)">
		<stop  offset="0" style="stop-color:#833AB4"/>
		<stop  offset="9.220000e-02" style="stop-color:#9C3495"/>
		<stop  offset="0.2927" style="stop-color:#DC2546"/>
		<stop  offset="0.392" style="stop-color:#FD1D1D"/>
		<stop  offset="0.5589" style="stop-color:#FC6831"/>
		<stop  offset="0.6887" style="stop-color:#FC9B40"/>
		<stop  offset="0.7521" style="stop-color:#FCAF45"/>
		<stop  offset="0.7806" style="stop-color:#FDB750"/>
		<stop  offset="0.8656" style="stop-color:#FECB6A"/>
		<stop  offset="0.9415" style="stop-color:#FFD87A"/>
		<stop  offset="1" style="stop-color:#FFDC80"/>
	</linearGradient>
	<path class="st9" d="M5.5,11.4c0.1-0.4,0.1-0.9,0.2-1.3c0.5-2.5,2.2-4.2,4.7-4.3c3-0.1,6.1-0.1,9.1,0c2.7,0.1,4.7,2.1,4.8,4.9
		c0.1,2.9,0.1,5.8,0,8.8c-0.1,2.8-2.1,4.8-4.8,4.9c-3,0.1-6.1,0.1-9.1,0c-2.7-0.1-4.7-2.1-4.8-4.9c0-0.2-0.1-0.5-0.1-0.7
		C5.5,16.2,5.5,13.8,5.5,11.4z M15,22.6c1.4,0,2.8,0,4.2,0c2.2-0.1,3.5-1.4,3.6-3.6c0.1-2.7,0.1-5.4,0-8.1c-0.1-2.2-1.4-3.5-3.6-3.6
		c-2.8-0.1-5.5-0.1-8.3,0c-2.2,0-3.5,1.3-3.6,3.5c-0.1,2.7-0.1,5.5,0,8.2c0.1,2.2,1.4,3.4,3.6,3.5C12.2,22.7,13.6,22.6,15,22.6z"/>
	<g>
		<path class="st10" d="M5.5,11.4c0.1-0.4,0.1-0.9,0.2-1.3c0.5-2.5,2.2-4.2,4.7-4.3c3-0.1,6.1-0.1,9.1,0c2.7,0.1,4.7,2.1,4.8,4.9
			c0.1,2.9,0.1,5.8,0,8.8c-0.1,2.8-2.1,4.8-4.8,4.9c-3,0.1-6.1,0.1-9.1,0c-2.7-0.1-4.7-2.1-4.8-4.9c0-0.2-0.1-0.5-0.1-0.7
			C5.5,16.2,5.5,13.8,5.5,11.4z M15,22.6c1.4,0,2.8,0,4.2,0c2.2-0.1,3.5-1.4,3.6-3.6c0.1-2.7,0.1-5.4,0-8.1
			c-0.1-2.2-1.4-3.5-3.6-3.6c-2.8-0.1-5.5-0.1-8.3,0c-2.2,0-3.5,1.3-3.6,3.5c-0.1,2.7-0.1,5.5,0,8.2c0.1,2.2,1.4,3.4,3.6,3.5
			C12.2,22.7,13.6,22.6,15,22.6z"/>
		<path class="st10" d="M15,10.2c-2.7,0-4.8,2.2-4.8,4.8c0,2.7,2.2,4.8,4.8,4.8c2.7,0,4.8-2.2,4.8-4.8C19.8,12.3,17.6,10.2,15,10.2z
			 M15,18.2c-1.8,0-3.2-1.4-3.2-3.2s1.4-3.2,3.2-3.2s3.2,1.4,3.2,3.2S16.7,18.2,15,18.2z"/>
		<path class="st10" d="M21.2,10c0,0.6-0.5,1.1-1.1,1.1c-0.6,0-1.1-0.5-1.1-1.1c0-0.6,0.5-1.1,1.1-1.1C20.7,8.8,21.2,9.3,21.2,10z"
			/>
	</g>
</g>
</svg>
