<?xml version="1.0" encoding="utf-8"?>
<!-- Generator: Adobe Illustrator 23.0.1, SVG Export Plug-In . SVG Version: 6.00 Build 0)  -->
<svg version="1.1" id="Layer_1" xmlns="http://www.w3.org/2000/svg" xmlns:xlink="http://www.w3.org/1999/xlink" x="0px" y="0px"
	 viewBox="0 0 30 30" style="enable-background:new 0 0 30 30;" xml:space="preserve">
<style type="text/css">
	.st0{fill:#FFFFFF;}
</style>
<g>
	<g>
		<g>
			<path class="st0" d="M15,18.2c1.8,0,3.2-1.4,3.2-3.2c0-0.7-0.2-1.3-0.6-1.9c-0.6-0.8-1.5-1.3-2.6-1.3c-1.1,0-2,0.5-2.6,1.3
				c-0.4,0.5-0.6,1.2-0.6,1.9C11.8,16.8,13.2,18.2,15,18.2z"/>
			<polygon class="st0" points="22,11.1 22,8.4 22,8 21.6,8 18.9,8 18.9,11.1 			"/>
			<path class="st0" d="M15,0C6.7,0,0,6.7,0,15c0,8.3,6.7,15,15,15c8.3,0,15-6.7,15-15C30,6.7,23.3,0,15,0z M24,13.1v7.4
				c0,1.9-1.6,3.5-3.5,3.5H9.5C7.5,24,6,22.5,6,20.5v-7.4V9.5C6,7.5,7.5,6,9.5,6h11.1C22.5,6,24,7.5,24,9.5V13.1z"/>
			<path class="st0" d="M20,15c0,2.8-2.2,5-5,5s-5-2.2-5-5c0-0.7,0.1-1.3,0.4-1.9H7.7v7.5c0,1,0.8,1.7,1.7,1.7h11.2
				c1,0,1.7-0.8,1.7-1.7v-7.5h-2.7C19.9,13.7,20,14.3,20,15z"/>
		</g>
	</g>
</g>
</svg>
