<?xml version="1.0" encoding="iso-8859-1"?>
<!-- Generator: Adobe Illustrator 22.0.1, SVG Export Plug-In . SVG Version: 6.00 Build 0)  -->
<svg version="1.1" id="Layer_1" xmlns="http://www.w3.org/2000/svg" xmlns:xlink="http://www.w3.org/1999/xlink" x="0px" y="0px"
	 viewBox="0 0 512 512" style="enable-background:new 0 0 512 512;" xml:space="preserve">
<g>
	<g>
		<g>
			<path style="fill:#FFFFFF;" d="M256.991,307.894c28.693,0,52.086-23.35,52.086-52.065c0-11.335-3.708-21.8-9.847-30.348
				c-9.46-13.116-24.838-21.716-42.207-21.716c-17.379,0-32.747,8.59-42.228,21.706c-6.16,8.548-9.837,19.014-9.847,30.348
				C204.915,284.533,228.287,307.894,256.991,307.894z"/>
			<polygon style="fill:#FFFFFF;" points="370.684,192.137 370.684,148.495 370.684,142 364.158,142.021 320.537,142.157 
				320.704,192.305 			"/>
			<path style="fill:#FFFFFF;" d="M257,12.804C122.902,12.804,13.804,121.902,13.804,256c0,134.088,109.098,243.196,243.196,243.196
				c134.088,0,243.196-109.108,243.196-243.196C500.196,121.902,391.108,12.804,257,12.804z M403.26,225.989V345.74
				c0,31.191-25.359,56.54-56.529,56.54H167.27c-31.181,0-56.529-25.349-56.529-56.54V225.989v-59.71
				c0-31.181,25.349-56.529,56.529-56.529h179.45c31.181,0,56.54,25.349,56.54,56.529V225.989z"/>
			<path style="fill:#FFFFFF;" d="M337.905,255.83c0,44.595-36.288,80.904-80.904,80.904s-80.894-36.309-80.894-80.904
				c0-10.727,2.137-20.983,5.95-30.348h-44.155v121.1c0,15.651,12.707,28.326,28.347,28.326h181.472
				c15.619,0,28.347-12.676,28.347-28.326v-121.1h-44.176C335.737,234.847,337.905,245.103,337.905,255.83z"/>
		</g>
	</g>
</g>
<g>
</g>
<g>
</g>
<g>
</g>
<g>
</g>
<g>
</g>
<g>
</g>
</svg>
