<?xml version="1.0" encoding="utf-8"?>
<!-- Generator: Adobe Illustrator 23.0.1, SVG Export Plug-In . SVG Version: 6.00 Build 0)  -->
<svg version="1.1" id="Layer_1" xmlns="http://www.w3.org/2000/svg" xmlns:xlink="http://www.w3.org/1999/xlink" x="0px" y="0px"
	 viewBox="0 0 30 30" style="enable-background:new 0 0 30 30;" xml:space="preserve">
<style type="text/css">
	.st0{fill:#0077B5;}
	.st1{fill:#FFFFFF;}
</style>
<g>
	<path class="st0" d="M15,0C6.7,0,0,6.7,0,15s6.7,15,15,15s15-6.7,15-15S23.3,0,15,0z"/>
	<rect x="6.5" y="12.1" class="st1" width="3.7" height="11.3"/>
	<path class="st1" d="M9.9,10c-0.4,0.4-0.9,0.6-1.6,0.6h0c-0.6,0-1.1-0.2-1.5-0.6C6.5,9.6,6.3,9.1,6.3,8.6c0-0.5,0.2-1,0.6-1.4
		c0.4-0.4,0.9-0.6,1.5-0.6c0.6,0,1.1,0.2,1.5,0.6c0.4,0.4,0.6,0.8,0.6,1.4C10.5,9.1,10.3,9.6,9.9,10z"/>
	<path class="st1" d="M20,23.4v-6c0-0.8-0.1-1.4-0.4-1.9c-0.3-0.5-0.8-0.7-1.5-0.7c-0.5,0-0.9,0.1-1.2,0.4c-0.3,0.3-0.5,0.6-0.7,0.9
		c-0.1,0.1-0.1,0.3-0.1,0.4c0,0.2,0,0.3,0,0.5v6.3h-3.7c0-4,0-6.1,0-6.1v-3.4c0-0.9,0-1.5,0-1.8H16v1.6c0.1-0.2,0.3-0.4,0.5-0.6
		c0.2-0.2,0.4-0.4,0.7-0.6c0.3-0.2,0.6-0.3,0.9-0.5c0.4-0.1,0.8-0.2,1.3-0.2c0.6,0,1.2,0.1,1.7,0.3c0.5,0.2,1,0.5,1.4,0.9
		c0.4,0.4,0.7,1,0.9,1.6c0.2,0.6,0.3,1.4,0.3,2.3v6.5H20z"/>
</g>
</svg>
