<?xml version="1.0" encoding="iso-8859-1"?>
<!-- Generator: Adobe Illustrator 22.0.1, SVG Export Plug-In . SVG Version: 6.00 Build 0)  -->
<svg version="1.1" id="Layer_1" xmlns="http://www.w3.org/2000/svg" xmlns:xlink="http://www.w3.org/1999/xlink" x="0px" y="0px"
	 viewBox="0 0 512 512" style="enable-background:new 0 0 512 512;" xml:space="preserve">
<path style="fill:#FFFFFF;" d="M256,12.865C121.72,12.865,12.865,121.72,12.865,256S121.72,499.135,256,499.135
	c134.28,0,243.135-108.855,243.135-243.135S390.28,12.865,256,12.865z M178.607,391.436h-60.49V208.63h60.49V391.436z
	 M173.715,174.382c-6.227,6.227-14.678,9.34-25.353,9.34h-0.445c-10.378,0-18.533-3.113-24.463-9.34
	c-5.93-6.227-8.896-13.64-8.896-22.239c0-8.896,3.113-16.383,9.34-22.461c6.227-6.079,14.53-9.118,24.908-9.118
	c10.378,0,18.607,3.039,24.686,9.118c6.079,6.079,9.118,13.566,9.118,22.461C182.907,160.742,179.942,168.155,173.715,174.382z
	 M336.951,391.436v-97.853c0-12.455-2.372-22.464-7.117-30.024c-4.744-7.561-12.602-11.341-23.573-11.341
	c-8.599,0-15.346,2.374-20.239,7.116c-4.891,4.747-8.524,9.786-10.896,15.125c-0.89,2.073-1.482,4.372-1.778,6.893
	c-0.297,2.523-0.445,5.114-0.445,7.783v102.302h-60.49c0.297-65.531,0.445-98.297,0.445-98.297v-55.155
	c0-14.53-0.148-24.315-0.445-29.356h60.49v25.797c2.076-2.965,4.596-6.227,7.561-9.785c2.965-3.558,6.598-6.894,10.897-10.008
	c4.3-3.114,9.415-5.634,15.343-7.561c5.933-1.927,12.899-2.891,20.908-2.891c10.081,0,19.347,1.631,27.799,4.893
	c8.45,3.262,15.789,8.303,22.016,15.123c6.225,6.82,11.12,15.419,14.679,25.797c3.557,10.38,5.337,22.536,5.337,36.472v104.97
	H336.951z"/>
<g>
</g>
<g>
</g>
<g>
</g>
<g>
</g>
<g>
</g>
<g>
</g>
</svg>
