<?xml version="1.0" encoding="utf-8"?>
<!-- Generator: Adobe Illustrator 23.0.1, SVG Export Plug-In . SVG Version: 6.00 Build 0)  -->
<svg version="1.1" id="Capa_1" xmlns="http://www.w3.org/2000/svg" xmlns:xlink="http://www.w3.org/1999/xlink" x="0px" y="0px"
	 viewBox="0 0 250.2 250.2" style="enable-background:new 0 0 250.2 250.2;" xml:space="preserve">
<style type="text/css">
	.st0{fill:#FFFFFF;}
</style>
<g>
	<path class="st0" d="M214.4,119.7c0-4.1-3.4-7.5-7.5-7.5s-7.5,3.4-7.5,7.5c0,41-33.3,74.3-74.3,74.3s-74.3-33.3-74.3-74.3
		c0-4.1-3.4-7.5-7.5-7.5s-7.5,3.4-7.5,7.5c0,46.7,36.1,85.2,81.8,89v26.5H84.2c-4.1,0-7.5,3.4-7.5,7.5s3.4,7.5,7.5,7.5H166
		c4.1,0,7.5-3.4,7.5-7.5s-3.4-7.5-7.5-7.5h-33.4v-26.5C178.3,204.8,214.4,166.4,214.4,119.7z"/>
	<path class="st0" d="M125.1,168.1c26.7,0,48.4-21.7,48.4-48.4V48.4c0-26.7-21.7-48.4-48.4-48.4C98.4,0,76.7,21.7,76.7,48.4v71.3
		C76.7,146.4,98.4,168.1,125.1,168.1z M91.7,48.4c0-18.4,15-33.4,33.4-33.4c18.4,0,33.4,15,33.4,33.4v71.3c0,18.4-15,33.4-33.4,33.4
		c-18.4,0-33.4-15-33.4-33.4C91.7,119.7,91.7,48.4,91.7,48.4z"/>
</g>
</svg>
