<?xml version="1.0" encoding="utf-8"?>
<!-- Generator: Adobe Illustrator 23.0.1, SVG Export Plug-In . SVG Version: 6.00 Build 0)  -->
<svg version="1.1" id="Layer_1" xmlns="http://www.w3.org/2000/svg" xmlns:xlink="http://www.w3.org/1999/xlink" x="0px" y="0px"
	 viewBox="0 0 150 150" style="enable-background:new 0 0 150 150;" xml:space="preserve">
<style type="text/css">
	.st0{fill:#FFFFFF;}
</style>
<g>
	<path class="st0" d="M67.3,71L67.3,71l-6.5,0v0.3h2.3v4c0,3-1.9,4.3-4.7,4.3c-4.4,0-6.5-4.6-6.5-10.5c0-5.9,1.9-10.4,6.8-10.4
		c3.8,0,5.2,2.3,6,5.9H65v-6.3h-0.4c0,0.7-0.4,1.1-1.1,1.1c-1.5,0-2.2-1.1-4.9-1.1c-5.6,0-9.8,4.7-9.8,11c0,5.9,4.2,10.6,9.5,10.7
		c2.7,0.1,4.4-1.5,4.8-1.9v2.2c0.5,0,2.5,0,2.5,0v-8.9h1.8V71z"/>
	<path class="st0" d="M82.1,79.2c-0.3,0.2-0.6,0.4-0.9,0.5c-0.4,0.1-0.8,0.2-1.3,0.2c-1,0-1.6-0.2-2.1-0.6c-0.4-0.4-0.7-1-0.9-1.7
		h-0.1c-0.1,0.2-0.2,0.4-0.3,0.7c-0.1,0.3-0.4,0.5-0.6,0.8c-0.3,0.2-0.7,0.5-1.1,0.6c-0.5,0.2-1.1,0.2-1.8,0.2c-0.8,0-1.5-0.1-2-0.3
		c-0.5-0.2-0.9-0.4-1.2-0.7c-0.3-0.3-0.5-0.6-0.5-0.9c-0.1-0.3-0.1-0.7-0.1-0.9c0-0.7,0.1-1.2,0.4-1.6c0.3-0.4,0.6-0.7,1.1-1
		c0.4-0.2,0.9-0.4,1.5-0.6c0.5-0.2,1.1-0.3,1.7-0.5c0.6-0.2,1.2-0.4,1.6-0.6c0.4-0.2,0.8-0.3,1-0.6c0.2-0.2,0.4-0.5,0.5-0.8
		c0.1-0.3,0.1-0.8,0.1-1.4c0-0.5,0-0.9-0.1-1.3c-0.1-0.4-0.2-0.7-0.3-0.9c-0.2-0.3-0.4-0.5-0.7-0.6c-0.3-0.1-0.7-0.2-1.2-0.2
		c-0.7,0-1.2,0.1-1.6,0.3c-0.4,0.2-0.6,0.6-0.6,1.1c0,0.3,0,0.7,0.1,1c0.1,0.3,0.1,0.6,0.1,0.7c0,0.3-0.1,0.5-0.3,0.7
		c-0.2,0.2-0.5,0.3-0.9,0.3c-0.7,0-1.1-0.1-1.2-0.3c-0.2-0.2-0.2-0.5-0.2-0.9c0-0.4,0.1-0.8,0.3-1.2c0.2-0.4,0.5-0.7,0.9-1
		c0.4-0.3,0.9-0.5,1.5-0.7c0.6-0.2,1.3-0.3,2-0.3c0.9,0,1.7,0.1,2.3,0.3c0.6,0.2,1.1,0.5,1.5,0.9c0.4,0.4,0.6,0.8,0.8,1.3
		c0.2,0.5,0.2,1,0.2,1.5V78c0,0.6,0.1,0.9,0.3,1.1c0.2,0.2,0.4,0.3,0.8,0.3c0.2,0,0.4,0,0.7-0.1c0.2-0.1,0.5-0.2,0.7-0.4L82.1,79.2z
		 M76.9,72.4L76.9,72.4c-0.1,0.3-0.4,0.5-1,0.8l-2.2,0.9c-0.6,0.2-1.1,0.6-1.5,1.1c-0.3,0.5-0.5,1-0.5,1.7c0,0.3,0,0.6,0.1,0.9
		c0.1,0.3,0.2,0.6,0.3,0.8c0.2,0.2,0.4,0.4,0.7,0.6c0.3,0.2,0.7,0.2,1.1,0.2c0.7,0,1.2-0.1,1.6-0.4c0.4-0.3,0.7-0.6,0.9-1
		c0.2-0.4,0.3-0.8,0.4-1.3c0.1-0.5,0.1-0.9,0.1-1.3V72.4z"/>
	<polygon class="st0" points="83,79.2 85.3,79.2 85.3,59 83,59 83,58.6 87.8,58.6 87.8,79.2 90.1,79.2 90.1,79.6 83,79.6 	"/>
	<polygon class="st0" points="91.8,79.2 94.1,79.2 94.1,59 91.8,59 91.8,58.6 96.6,58.6 96.6,79.2 98.9,79.2 98.9,79.6 91.8,79.6 	
		"/>
	<path class="st0" d="M104.1,72.3c0,0.2,0,0.4,0,0.6c0,0.2,0,0.5,0,0.8c0,0.6,0,1.3,0.1,2c0.1,0.7,0.3,1.3,0.5,1.9
		c0.3,0.6,0.7,1,1.2,1.4c0.5,0.4,1.2,0.6,2.1,0.6s1.6-0.1,2.2-0.4c0.6-0.3,1-0.6,1.3-0.9c0.3-0.4,0.6-0.7,0.7-1.1
		c0.2-0.4,0.3-0.7,0.4-0.9l0.4,0.1c-0.1,0.2-0.2,0.5-0.3,0.9c-0.2,0.4-0.4,0.8-0.8,1.2c-0.4,0.4-0.9,0.7-1.5,1
		c-0.6,0.3-1.4,0.5-2.4,0.5c-1,0-1.9-0.2-2.7-0.5c-0.8-0.3-1.6-0.8-2.2-1.3c-0.6-0.6-1.1-1.3-1.4-2.1c-0.3-0.8-0.5-1.7-0.5-2.7
		c0-0.9,0.2-1.7,0.5-2.5c0.3-0.8,0.8-1.5,1.4-2.1c0.6-0.6,1.3-1.1,2.1-1.5c0.8-0.4,1.7-0.6,2.6-0.6c0.5,0,1.1,0.1,1.8,0.3
		c0.6,0.2,1.2,0.5,1.8,0.9c0.5,0.4,1,1,1.4,1.7c0.4,0.7,0.5,1.6,0.5,2.7H104.1z M110.2,71.9c0-0.3,0.1-0.5,0.1-0.8v-0.7
		c0-0.7-0.1-1.2-0.2-1.6c-0.1-0.4-0.3-0.8-0.5-1c-0.2-0.3-0.5-0.4-0.8-0.5c-0.3-0.1-0.7-0.2-1.1-0.2c-0.7,0-1.2,0.1-1.7,0.4
		c-0.4,0.3-0.8,0.6-1,1.1c-0.3,0.4-0.5,1-0.6,1.5c-0.1,0.6-0.2,1.2-0.3,1.8H110.2z"/>
	<path class="st0" d="M115.4,79.2h2.3V67.5h-2.3v-0.4h4.8V70h0.1c0.1-0.3,0.2-0.6,0.4-1c0.2-0.4,0.4-0.7,0.7-1.1
		c0.3-0.3,0.7-0.6,1.1-0.9c0.4-0.2,1-0.3,1.6-0.3c0.5,0,0.8,0.1,1.2,0.2c0.3,0.1,0.6,0.3,0.8,0.6c0.2,0.2,0.4,0.5,0.5,0.8
		c0.1,0.3,0.1,0.6,0.1,0.9c0,0.6-0.1,1.1-0.4,1.3c-0.3,0.2-0.6,0.3-1,0.3c-0.9,0-1.3-0.3-1.3-0.8c0-0.2,0-0.3,0.1-0.4
		c0-0.1,0.1-0.2,0.1-0.3c0-0.1,0.1-0.2,0.1-0.4c0-0.1,0.1-0.3,0.1-0.6c0-0.6-0.3-0.9-1-0.9c-0.3,0-0.7,0.1-1,0.4
		c-0.4,0.2-0.7,0.6-1,1c-0.3,0.4-0.6,1-0.8,1.6c-0.2,0.6-0.3,1.4-0.3,2.2v6.7h2.6v0.4h-7.4V79.2z"/>
	<path class="st0" d="M127.5,79.2h2.3V67.5h-2.3v-0.4h4.8v12.1h2.3v0.4h-7.1V79.2z M129.5,60.3c0-0.4,0.2-0.8,0.5-1.1
		c0.3-0.3,0.7-0.5,1.1-0.5c0.4,0,0.8,0.2,1.1,0.5c0.3,0.3,0.5,0.7,0.5,1.1c0,0.4-0.2,0.8-0.5,1.1c-0.3,0.3-0.7,0.5-1.1,0.5
		c-0.4,0-0.8-0.2-1.1-0.5C129.6,61.1,129.5,60.7,129.5,60.3"/>
	<path class="st0" d="M149.7,79.2c-0.3,0.2-0.6,0.4-0.9,0.5c-0.4,0.1-0.8,0.2-1.3,0.2c-1,0-1.6-0.2-2.1-0.6c-0.4-0.4-0.7-1-0.9-1.7
		h-0.1c-0.1,0.2-0.2,0.4-0.3,0.7c-0.1,0.3-0.4,0.5-0.6,0.8c-0.3,0.2-0.7,0.5-1.1,0.6c-0.5,0.2-1.1,0.2-1.8,0.2c-0.8,0-1.5-0.1-2-0.3
		c-0.5-0.2-0.9-0.4-1.2-0.7c-0.3-0.3-0.5-0.6-0.5-0.9c-0.1-0.3-0.1-0.7-0.1-0.9c0-0.7,0.1-1.2,0.4-1.6c0.3-0.4,0.6-0.7,1.1-1
		c0.4-0.2,0.9-0.4,1.5-0.6c0.5-0.2,1.1-0.3,1.6-0.5c0.7-0.2,1.2-0.4,1.6-0.6c0.4-0.2,0.8-0.3,1-0.6c0.2-0.2,0.4-0.5,0.5-0.8
		c0.1-0.3,0.1-0.8,0.1-1.4c0-0.5,0-0.9-0.1-1.3c-0.1-0.4-0.2-0.7-0.3-0.9c-0.2-0.3-0.4-0.5-0.7-0.6c-0.3-0.1-0.7-0.2-1.2-0.2
		c-0.7,0-1.2,0.1-1.6,0.3c-0.4,0.2-0.6,0.6-0.6,1.1c0,0.3,0,0.7,0.1,1c0.1,0.3,0.1,0.6,0.1,0.7c0,0.3-0.1,0.5-0.3,0.7
		c-0.2,0.2-0.5,0.3-0.9,0.3c-0.7,0-1.1-0.1-1.2-0.3c-0.2-0.2-0.2-0.5-0.2-0.9c0-0.4,0.1-0.8,0.3-1.2c0.2-0.4,0.5-0.7,0.9-1
		c0.4-0.3,0.9-0.5,1.5-0.7c0.6-0.2,1.2-0.3,2-0.3c0.9,0,1.7,0.1,2.3,0.3c0.6,0.2,1.1,0.5,1.5,0.9c0.4,0.4,0.6,0.8,0.8,1.3
		c0.2,0.5,0.2,1,0.2,1.5V78c0,0.6,0.1,0.9,0.3,1.1c0.2,0.2,0.4,0.3,0.8,0.3c0.2,0,0.4,0,0.7-0.1c0.2-0.1,0.5-0.2,0.7-0.4L149.7,79.2
		z M144.5,72.4L144.5,72.4c-0.1,0.3-0.4,0.5-1,0.8l-2.2,0.9c-0.6,0.2-1.1,0.6-1.5,1.1c-0.3,0.5-0.5,1-0.5,1.7c0,0.3,0,0.6,0.1,0.9
		c0.1,0.3,0.2,0.6,0.3,0.8c0.2,0.2,0.4,0.4,0.7,0.6c0.3,0.2,0.7,0.2,1.1,0.2c0.7,0,1.2-0.1,1.6-0.4c0.4-0.3,0.7-0.6,0.9-1
		c0.2-0.4,0.4-0.8,0.4-1.3c0.1-0.5,0.1-0.9,0.1-1.3V72.4z"/>
	<path class="st0" d="M0.3,58.4h3.6c2.4,0,4,0.1,4.9,0.3c0.8,0.2,1.5,0.7,2.1,1.6c0.5,0.9,0.8,2.2,0.8,4.1c0,1.7-0.2,2.8-0.6,3.4
		c-0.4,0.6-1.1,0.9-2.2,1.1c1,0.3,1.7,0.7,2,1.1c0.3,0.5,0.6,0.9,0.6,1.3c0.1,0.4,0.1,1.5,0.1,3.2v5.8H6.9V73c0-1.2-0.1-1.9-0.2-2.2
		c-0.2-0.3-0.6-0.4-1.3-0.4v9.9H0.3V58.4z M5.4,62.1V67c0.6,0,1-0.1,1.2-0.3C6.8,66.5,6.9,66,6.9,65v-1.2c0-0.7-0.1-1.1-0.3-1.4
		C6.4,62.2,6,62.1,5.4,62.1"/>
	<path class="st0" d="M29.3,58.4v21.9h-4.4l0-14.8l-1.8,14.8h-3.1l-1.9-14.4l0,14.4h-4.4V58.4h6.6c0.2,1.3,0.4,2.9,0.6,4.7l0.7,5.6
		l1.2-10.2H29.3z"/>
	<polygon class="st0" points="39.8,58.4 39.8,62.7 36.1,75.9 39.8,75.9 39.8,80.2 30.5,80.2 30.5,77.1 34.4,62.7 30.9,62.7 
		30.9,58.4 	"/>
	<polygon class="st0" points="86.7,88.6 86.7,91.7 85.3,91.7 85.3,88.6 83,84.2 84.6,84.2 86,87.2 87.4,84.2 89,84.2 	"/>
	<polygon class="st0" points="90.6,91.7 90.6,84.2 95.6,84.2 95.6,85.5 92,85.5 92,87.3 95.1,87.3 95.1,88.6 92,88.6 92,90.4 
		95.6,90.4 95.6,91.7 	"/>
	<polygon class="st0" points="97.6,91.7 97.6,84.2 99.1,84.2 99.1,90.4 102.6,90.4 102.6,91.7 	"/>
	<path class="st0" d="M108.7,91.7l-0.4-1.3h-2.7l-0.5,1.3h-1.6l2.8-7.5h1.2l2.8,7.5H108.7z M107,86.4l-1,2.7h1.9L107,86.4z"/>
	<polygon class="st0" points="115.9,91.7 115.9,88.6 113.3,88.6 113.3,91.7 111.8,91.7 111.8,84.2 113.3,84.2 113.3,87.3 
		115.9,87.3 115.9,84.2 117.4,84.2 117.4,91.7 	"/>
	<path class="st0" d="M124.1,91.7l-0.5-1.3H121l-0.5,1.3h-1.6l2.8-7.5h1.2l2.8,7.5H124.1z M122.3,86.4l-1,2.7h1.9L122.3,86.4z"/>
	<polygon class="st0" points="131.7,91.7 128.7,87.1 128.7,91.7 127.2,91.7 127.2,84.2 128.5,84.2 131.6,88.8 131.6,84.2 
		133.1,84.2 133.1,91.7 	"/>
	<polygon class="st0" points="139.9,91.7 137.9,88.3 136.9,89.4 136.9,91.7 135.4,91.7 135.4,84.2 136.9,84.2 136.9,87.5 
		139.6,84.2 141.4,84.2 138.9,87.2 141.6,91.7 	"/>
	<path class="st0" d="M147.5,91.7l-0.5-1.3h-2.7l-0.5,1.3h-1.6l2.8-7.5h1.2l2.8,7.5H147.5z M145.7,86.4l-1,2.7h1.9L145.7,86.4z"/>
</g>
</svg>
