<?xml version="1.0" encoding="utf-8"?>
<!-- Generator: Adobe Illustrator 23.0.1, SVG Export Plug-In . SVG Version: 6.00 Build 0)  -->
<svg version="1.1" id="Layer_1" xmlns="http://www.w3.org/2000/svg" xmlns:xlink="http://www.w3.org/1999/xlink" x="0px" y="0px"
	 viewBox="0 0 150 150" style="enable-background:new 0 0 150 150;" xml:space="preserve">
<style type="text/css">
	.st0{fill:none;stroke:#DC9A2D;stroke-miterlimit:10;}
	.st1{fill:#DCC82B;}
	.st2{fill:#BA4D26;}
	.st3{font-family:'StarlightPersonal';}
	.st4{font-size:44.5949px;}
	.st5{fill:#FFFFFF;}
	.st6{font-family:'Bernadette';}
	.st7{font-size:30.5012px;}
	.st8{opacity:0.55;}
	.st9{fill:#792816;}
	.st10{font-size:28.791px;}
</style>
<g>
	<g>
		<path class="st0" d="M63.1,59l0.1,14c0.9-0.3,1.6-0.8,2.3-1.4c0.6-0.6,1.1-1.3,1.4-2.1c0.4-1,0.6-2.1,0.5-3.3
			c0-1.1-0.3-2.2-0.8-3.4c-0.4-0.7-0.9-1.4-1.4-2.1C64.7,60.1,63.9,59.5,63.1,59z"/>
		<polygon class="st1" points="50,48.9 49.8,36.7 37.7,37.3 38.4,49.3 		"/>
		<path class="st1" d="M149.2,70.6c-0.1-3.4-1.4-6.3-3.9-8.4c-0.6-0.5-1.2-0.9-1.8-1.2l5.4,0.5l0.2-1.8c0.1-1,0.1-2,0-3.1
			c-0.1-1.2-0.4-2.4-0.9-3.6c-0.5-1.2-1.2-2.3-2.1-3.3l0,0c-0.9-0.9-2-1.7-3.3-2.3c-1.3-0.6-2.8-1-4.5-1.2c-0.5,0-1.1-0.1-1.6-0.1
			c-0.6,0-1.1,0-1.8,0.1l-0.1,0c-1.8,0.2-3.4,0.6-4.8,1.3c-1.4,0.6-2.7,1.5-3.8,2.5c-1.4,1.3-2.4,2.8-3,4.5
			c-0.6,1.6-0.9,3.4-0.7,5.2c0.1,1.3,0.5,2.6,1.1,3.8c0.6,1.2,1.4,2.4,2.4,3.3c0.8,0.8,1.7,1.5,2.7,2c0.2,0.1,0.4,0.2,0.6,0.3
			l-6.8,0.5l0.2,1.7l-5-3.6c0.5-0.4,0.9-0.9,1.3-1.4c1-1.1,1.7-2.4,2.3-3.7c0.6-1.4,0.9-2.8,0.9-4.3c0-1.5-0.3-3-1-4.6
			c-1-2.1-2.4-3.8-4.2-4.8c-1.7-1-3.5-1.7-5.6-2.1c-1.7-0.3-3.6-0.5-5.4-0.5c-0.2,0-0.5,0-0.7,0c-2,0-4,0.1-5.8,0.2l-1.8,0.1l0,0.9
			l-0.6,0c-3.3,0-6.6-0.1-10-0.1c-3.3,0-6.6,0-9.9,0h-1.8l0,11.1c-0.7-1.5-1.7-2.9-2.9-4.3c-1.2-1.4-2.7-2.6-4.4-3.6
			c-1.7-1-3.6-1.8-5.8-2.4c-2.2-0.6-4.6-0.9-7.2-0.9h-1.8V49c0,5.5,0,10.9,0.1,16.3c0,2.7,0,5.4,0.1,8.1l-3.1,0.2L50,48.9l-11.6,0.2
			l0.4,25.1l-1.5,0.1l-1.8-29.5l-11.6,0.7l0.2,4.1c-0.9-0.8-1.9-1.5-3.1-2.1c-1.3-0.6-2.8-1-4.5-1.2c-0.5,0-1.1-0.1-1.6-0.1
			c-0.6,0-1.1,0-1.8,0.1l-0.1,0c-1.8,0.2-3.4,0.6-4.8,1.3C6.9,48.2,5.7,49,4.5,50c-1.4,1.3-2.4,2.8-3,4.5c-0.6,1.6-0.9,3.4-0.7,5.2
			C1,61,1.4,62.3,2,63.5c0.6,1.2,1.4,2.4,2.4,3.3c0.8,0.8,1.7,1.5,2.7,2c0.2,0.1,0.4,0.2,0.6,0.3L1,69.6l0.2,1.8
			c0.1,1.1,0.3,2.3,0.7,3.5c0.4,1.4,1.1,2.8,2.1,4.1l0,0c1.1,1.3,2.6,2.4,4.5,3.3c1.6,0.7,3.5,1.1,5.7,1.1c0.4,0,0.9,0,1.4,0
			c1.8-0.1,3.4-0.6,4.9-1.3c1.4-0.7,2.7-1.6,3.8-2.8c0.6-0.6,1.1-1.4,1.6-2.1l0.6,9.3l28.9-1.6l-0.1-1.5h3.6c1.2,0,2.4,0,3.5-0.1
			c1.2-0.1,2.3-0.3,3.4-0.6c1.1-0.3,2.2-0.8,3.3-1.4c2.8-1.7,5-4,6.4-6.8l0,8.7h1.8c3.4,0,6.7,0,10,0c0.7,0,1.3,0,2,0
			c2.6,0,5.3,0,8,0.1l1.8,0l0-1l11.2-0.3l-0.2-5.3l9.4,6.8l4.6-6.3c0.4,0.7,0.8,1.4,1.3,2l0,0c1.1,1.3,2.6,2.4,4.5,3.3
			c1.6,0.7,3.5,1.1,5.7,1.1c0.4,0,0.9,0,1.4,0c1.8-0.1,3.4-0.6,4.9-1.3c1.4-0.7,2.7-1.6,3.8-2.8c1.1-1.2,2-2.5,2.6-4
			C149,73.7,149.2,72.1,149.2,70.6z"/>
		<text transform="matrix(1 0 0 1 3.3545 80.668)" class="st2 st3 st4">sliders</text>
	</g>
	<text transform="matrix(1 0 0 1 89.373 98.8291)" class="st5 st6 st7">fries</text>
	<g class="st8">
		<path class="st5" d="M89.5,100c0.1-0.4,0.3-0.8,0.4-1.3c0.3-0.8,0.6-1.7,0.9-2.6c0.3,0.3,0.7,0.5,1.2,0.6
			c-0.2,0.6-0.4,1.1-0.6,1.7c0.8-0.6,1.7-1.2,2.5-1.7c0-0.1,0-0.1,0.1-0.2c0.2-0.1,0.4-0.1,0.5-0.2c0.7-0.4,1.5-0.9,2.2-1.3
			c0.1,0,0.2-0.1,0.2-0.1c0.6-0.5,1.2-1,1.8-1.6c0.7-0.7,1.2-1.4,1.7-2.1c0.5-0.7,0.9-1.2,1.3-1.7c0.1-0.1,0.1-0.2,0.1-0.4
			c0-0.2,0-0.4-0.1-0.6c-0.1-0.2-0.1-0.3-0.2-0.4c-0.1-0.1-0.2,0-0.4,0.3c-0.4,0.6-0.9,1.2-1.4,1.8c-0.5,0.6-1.1,1.3-1.6,1.8
			c-0.6,0.6-1.2,1.1-1.8,1.6c-0.6,0.5-1.2,0.8-1.8,1.1c0.1-0.5,0.2-0.9,0.3-1.3c0.1-0.4,0.1-0.7,0.2-1c0.1-1.1,0.1-2.1,0-3
			c-0.1-0.9-0.4-1.5-1-2c0.5-1.4,1-2.7,1.4-3.9c0.5-1.2,0.9-2.4,1.2-3.3c0.4-1,0.6-1.8,0.9-2.4c0.2-0.6,0.3-1,0.3-1.2
			c0-0.2-0.1-0.4-0.3-0.7c-0.2-0.3-0.4-0.5-0.8-0.8c-0.3-0.3-0.7-0.5-1-0.7c-0.4-0.2-0.7-0.4-1-0.5c-0.3-0.1-0.6-0.1-0.8-0.1
			c-0.2,0-0.3,0.2-0.4,0.4c-0.1,0.9-0.3,2-0.6,3.2c-0.3,1.2-0.7,2.5-1.1,3.8c-0.4,1.4-0.9,2.7-1.4,4.2c-0.5,1.4-1,2.8-1.6,4.2
			c-0.5,1.4-1.1,2.7-1.6,4c-0.5,1.3-1,2.4-1.4,3.4c-0.4,1-0.7,1.9-1,2.6c-0.3,0.7-0.4,1.2-0.4,1.5c-0.1,1.1,0.1,2.1,0.5,2.8
			C86.5,102.5,88,101.2,89.5,100z M92.2,92.7c0.2-0.5,0.4-1.1,0.6-1.6c0.1,0.1,0.2,0.2,0.2,0.4c0,0.2,0.1,0.4,0.1,0.5
			c0,0.2,0,0.4,0,0.6c0,0.2,0,0.4,0,0.5c0,0.2-0.1,0.5-0.1,0.8c-0.1,0.3-0.1,0.7-0.2,1.1c-0.2-0.1-0.5-0.1-0.6-0.3
			c-0.2-0.1-0.3-0.2-0.4-0.4C91.8,93.8,92,93.3,92.2,92.7z"/>
		<path class="st5" d="M115.8,81.4c0.3,0.2,0.5,0.3,0.9,0.4c0.3,0.1,0.7,0.2,1,0.2c0.4,0,0.8-0.1,1.2-0.4c0.4-0.3,0.7-0.6,1-0.9
			c0.3-0.4,0.5-0.8,0.7-1.2c0.2-0.4,0.3-0.8,0.3-1.1c0-0.7-0.1-1.2-0.5-1.5c-0.4-0.4-0.9-0.5-1.5-0.5c-0.4,0-0.8,0.1-1.3,0.4
			c-0.4,0.2-0.8,0.5-1.2,0.9c-0.4,0.4-0.7,0.8-1,1.2c-0.3,0.4-0.4,0.9-0.4,1.3c0,0.3,0,0.5,0.2,0.8C115.4,81,115.6,81.3,115.8,81.4z
			"/>
		<path class="st5" d="M117.6,86.8c0.1-0.3,0.1-0.5,0.2-0.6c0-0.3-0.1-0.6-0.5-1c-0.3-0.4-0.7-0.7-1.1-0.9c-0.4-0.2-0.8-0.4-1.2-0.4
			c-0.4,0-0.6,0.2-0.6,0.5c0,0.2-0.1,0.6-0.4,1.2c-0.2,0.6-0.5,1.2-0.8,2c-0.1,0.2-0.2,0.4-0.3,0.7C114.5,87.7,116,87.2,117.6,86.8z
			"/>
		<path class="st5" d="M128.7,83.9c-0.4-0.2-0.8-0.2-1.2-0.2c-0.4,0-0.9,0.2-1.5,0.5c-0.4,0.2-0.7,0.4-1.1,0.7
			C126.2,84.5,127.4,84.2,128.7,83.9z"/>
		<path class="st5" d="M137.2,81.8c0-0.3,0.1-0.7,0.2-1.1c0.1-0.5,0.3-0.9,0.5-1.3c0.2-0.4,0.4-0.8,0.6-1.1c0.2-0.3,0.4-0.4,0.6-0.4
			c0.2,0,0.4,0.1,0.5,0.3c0.1,0.2,0.1,0.7,0.1,1.3c0,0.6-0.2,1.2-0.4,1.8c0.4-0.1,0.7-0.2,1.1-0.2c0.1-0.5,0.2-1,0.3-1.5
			c0.1-1.1,0-1.9-0.3-2.3c-0.3-0.5-0.7-0.7-1.1-0.7c-0.4,0-0.9,0.1-1.5,0.4c-0.6,0.3-1.2,0.7-1.8,1.2c-0.6,0.5-1.1,1.1-1.5,1.8
			c-0.4,0.7-0.7,1.4-0.7,2.2c0,0.2,0,0.3,0,0.5C134.8,82.4,136,82.1,137.2,81.8z"/>
	</g>
	<text transform="matrix(1 0 0 1 35.4517 101.7295)" class="st9 st3 st10">and</text>
</g>
</svg>
