<?xml version="1.0" encoding="utf-8"?>
<!-- Generator: Adobe Illustrator 23.0.1, SVG Export Plug-In . SVG Version: 6.00 Build 0)  -->
<svg version="1.1" id="Layer_1" xmlns="http://www.w3.org/2000/svg" xmlns:xlink="http://www.w3.org/1999/xlink" x="0px" y="0px"
	 viewBox="0 0 120 44" style="enable-background:new 0 0 120 44;" xml:space="preserve">
<style type="text/css">
	.st0{fill:#ED2224;}
	.st1{fill:#F26722;}
	.st2{fill:#FBED24;}
	.st3{fill:#4FB848;}
	.st4{fill:#37ACE2;}
	.st5{fill:#246FB8;}
	.st6{fill:#703996;}
	.st7{fill:#E9E8E8;}
	.st8{fill:#282828;}
	.st9{fill:#FFFFFF;}
</style>
<g>
	<circle class="st0" cx="6" cy="5.9" r="5.5"/>
	<circle class="st1" cx="21.9" cy="5.9" r="5.5"/>
	<circle class="st2" cx="37.8" cy="5.9" r="5.5"/>
	<circle class="st3" cx="6" cy="21.8" r="5.5"/>
	<circle class="st4" cx="21.9" cy="21.8" r="5.5"/>
	<circle class="st5" cx="37.8" cy="21.8" r="5.5"/>
	<circle class="st6" cx="6" cy="37.7" r="5.5"/>
	<circle class="st7" cx="21.9" cy="37.7" r="5.5"/>
	<circle class="st8" cx="37.8" cy="37.7" r="5.5"/>
	<g>
		<path class="st9" d="M59.3,25.4c1.3,0,2-0.6,2-1.2c0-0.9-1.2-1.1-2.4-1.3c-1.4-0.2-4.4-0.7-4.4-3.4c0-2.6,2.4-3.3,4.4-3.3
			c1.9,0,3.1,0.6,4.3,1.5l-1.3,1.8c-0.9-0.7-2-1.1-3.1-1.1c-0.7,0-1.9,0.2-1.9,1.1c0,0.8,1.2,1,2.2,1.2c1.8,0.4,4.6,0.6,4.6,3.5
			c0,2.3-1.8,3.4-4.4,3.4c-2.4,0-3.9-0.8-5-1.7l1.3-1.8C56.4,24.6,58,25.4,59.3,25.4z"/>
		<path class="st9" d="M64.9,21.8c0-3.1,2.6-5.7,5.9-5.7c3.3,0,5.9,2.6,5.9,5.7c0,3.2-2.7,5.7-5.9,5.7
			C67.5,27.5,64.9,24.9,64.9,21.8z M67.3,21.8c0,1.9,1.6,3.6,3.5,3.6c2,0,3.5-1.7,3.5-3.6c0-1.9-1.6-3.5-3.5-3.5
			C68.9,18.2,67.3,19.9,67.3,21.8z"/>
		<path class="st9" d="M78.7,27.3v-11h4.9c2.4,0,4,1.6,4,3.8c0,1.6-0.9,2.9-2.2,3.5c0.9,1.2,2,2.5,2.8,3.7h-2.8
			c-0.9-1.1-1.7-2.2-2.6-3.4H81v3.4H78.7z M83.6,21.8c0.7,0,1.6-0.5,1.6-1.7c0-0.6-0.2-1.8-1.6-1.8H81v3.4H83.6z"/>
		<path class="st9" d="M94.1,18.4v8.9h-2.4v-8.9h-3.2v-2.1h8.8v2.1H94.1z"/>
		<path class="st9" d="M101.1,20.8h5.3v2.1h-5.3v2.3h6v2.1h-8.3v-11h8.3v2.1h-6V20.8z"/>
		<path class="st9" d="M109.2,16.3h4.5c1.6,0,3,0.5,4,1.4c1.1,1,1.7,2.4,1.7,4.1c0,1.7-0.6,3.2-1.7,4.1c-1,0.9-2.4,1.4-4,1.4h-4.5
			V16.3z M113.7,25.2c1.5,0,3.3-0.5,3.3-3.4s-1.8-3.4-3.3-3.4h-2.2v6.9H113.7z"/>
	</g>
	<g>
		<g>
			<path class="st9" d="M65,43.6l-3.1-6.5l-3.2,6.5l-4.4-11.4h2.6l2.1,5.7l2.9-6l2.9,6l2.2-5.7h2.5L65,43.6z"/>
			<path class="st9" d="M69.7,37.7c0-3.1,2.6-5.7,5.9-5.7c3.3,0,5.9,2.6,5.9,5.7c0,3.2-2.7,5.7-5.9,5.7
				C72.3,43.4,69.7,40.9,69.7,37.7z M72,37.7c0,1.9,1.6,3.6,3.5,3.6c2,0,3.5-1.7,3.5-3.6c0-1.9-1.6-3.5-3.5-3.5
				C73.6,34.2,72,35.8,72,37.7z"/>
			<path class="st9" d="M83.5,43.2v-11h4.9c2.4,0,4,1.6,4,3.8c0,1.6-0.9,2.9-2.2,3.5c0.9,1.2,2,2.5,2.8,3.7h-2.8
				c-0.9-1.1-1.7-2.2-2.6-3.4h-1.6v3.4H83.5z M88.3,37.7c0.7,0,1.6-0.5,1.6-1.7c0-0.6-0.2-1.8-1.6-1.8h-2.5v3.4H88.3z"/>
			<path class="st9" d="M96.8,43.2h-2.4v-11h2.4v4.6l4.3-4.6h2.9l-4.5,4.7l4.7,6.3h-2.9l-3.4-4.7l-1.1,1.1V43.2z"/>
			<path class="st9" d="M109.5,41.3c1.3,0,2-0.6,2-1.2c0-0.9-1.2-1.1-2.4-1.3c-1.4-0.2-4.4-0.7-4.4-3.4c0-2.6,2.4-3.3,4.4-3.3
				c1.9,0,3.1,0.6,4.3,1.5l-1.3,1.8c-0.9-0.7-2-1.1-3.1-1.1c-0.7,0-1.9,0.2-1.9,1.1c0,0.8,1.2,1,2.2,1.2c1.8,0.4,4.6,0.6,4.6,3.5
				c0,2.3-1.8,3.4-4.4,3.4c-2.4,0-3.9-0.8-5-1.7l1.3-1.8C106.6,40.5,108.2,41.3,109.5,41.3z"/>
		</g>
	</g>
</g>
</svg>
