<?xml version="1.0" encoding="iso-8859-1"?>
<!-- Generator: Adobe Illustrator 22.0.1, SVG Export Plug-In . SVG Version: 6.00 Build 0)  -->
<svg version="1.1" id="Layer_1" xmlns="http://www.w3.org/2000/svg" xmlns:xlink="http://www.w3.org/1999/xlink" x="0px" y="0px"
	 viewBox="0 0 512 512" style="enable-background:new 0 0 512 512;" xml:space="preserve">
<g>
	<circle style="fill:#EC2024;" cx="32.093" cy="181.084" r="22.714"/>
	<circle style="fill:#F16622;" cx="97.508" cy="181.084" r="22.714"/>
	<circle style="fill:#FAEC22;" cx="162.924" cy="181.084" r="22.714"/>
	<circle style="fill:#4EB648;" cx="32.093" cy="246.499" r="22.714"/>
	<circle style="fill:#36AAE1;" cx="97.508" cy="246.499" r="22.714"/>
	<circle style="fill:#226FB7;" cx="162.924" cy="246.499" r="22.714"/>
	<circle style="fill:#6F3894;" cx="32.093" cy="311.914" r="22.714"/>
	<circle style="fill:#E8E7E7;" cx="97.508" cy="311.914" r="22.714"/>
	<circle style="fill:#282827;" cx="162.924" cy="311.914" r="22.714"/>
	<g>
		<path style="fill:#FFFFFF;" d="M251.255,261.164c5.382,0,8.352-2.475,8.352-5.011c0-3.588-4.825-4.516-10.083-5.443
			c-5.691-0.928-17.939-3.031-17.939-13.856c0-10.764,9.959-13.671,17.939-13.671c7.918,0,12.928,2.413,17.877,6.062l-5.443,7.423
			c-3.897-2.784-8.413-4.64-12.805-4.64c-2.846,0-7.794,0.866-7.794,4.454c0,3.216,4.887,3.959,8.97,4.825
			c7.361,1.546,19.053,2.475,19.053,14.599c0,9.402-7.3,14.042-18.001,14.042c-9.774,0-16.207-3.464-20.414-7.052l5.196-7.485
			C239.44,258.133,246.059,261.164,251.255,261.164z"/>
		<path style="fill:#FFFFFF;" d="M274.456,246.441c0-12.867,10.888-23.444,24.311-23.444c13.485,0,24.435,10.578,24.435,23.444
			c0,12.99-10.949,23.507-24.435,23.507C285.344,269.948,274.456,259.432,274.456,246.441z M284.168,246.441
			c0,7.794,6.557,14.661,14.599,14.661c8.104,0,14.599-6.867,14.599-14.661c0-7.732-6.495-14.537-14.599-14.537
			C290.725,231.905,284.168,238.709,284.168,246.441z"/>
		<path style="fill:#FFFFFF;" d="M331.188,269.082v-45.219h20.104c9.712,0,16.33,6.434,16.33,15.712
			c0,6.557-3.588,11.939-9.217,14.352c3.897,4.887,8.042,10.33,11.691,15.155h-11.691c-3.712-4.64-7.113-9.155-10.825-14.104h-6.681
			v14.104H331.188z M351.292,246.503c3.03,0,6.618-2.227,6.618-6.928c0-2.351-0.865-7.237-6.618-7.237h-10.393v14.166H351.292z"/>
		<path style="fill:#FFFFFF;" d="M394.474,232.338v36.744h-9.836v-36.744h-13.176v-8.475h36.126v8.475H394.474z"/>
		<path style="fill:#FFFFFF;" d="M423.305,242.421h21.65v8.537h-21.65v9.65h24.496v8.475H413.53v-45.219h34.271v8.475h-24.496
			V242.421z"/>
		<path style="fill:#FFFFFF;" d="M456.899,223.863h18.682c6.681,0,12.31,1.979,16.516,5.691c4.64,4.021,7.053,9.897,7.053,16.887
			c0,6.928-2.599,12.99-7.053,17.012c-4.145,3.649-9.897,5.629-16.516,5.629h-18.682V223.863z M475.581,260.607
			c6.186,0,13.671-2.227,13.671-14.104c0-11.877-7.547-14.104-13.671-14.104h-8.908v28.208H475.581z"/>
	</g>
	<g>
		<g>
			<path style="fill:#FFFFFF;" d="M274.925,336.306l-12.932-26.854l-13.055,26.854l-18.067-46.839h10.519l8.725,23.45l11.879-24.626
				l11.88,24.626l8.91-23.45h10.395L274.925,336.306z"/>
			<path style="fill:#FFFFFF;" d="M294.101,311.988c0-12.869,10.89-23.45,24.316-23.45c13.488,0,24.44,10.581,24.44,23.45
				c0,12.994-10.952,23.513-24.44,23.513C304.99,335.501,294.101,324.982,294.101,311.988z M303.814,311.988
				c0,7.797,6.559,14.665,14.603,14.665c8.105,0,14.603-6.868,14.603-14.665c0-7.733-6.497-14.54-14.603-14.54
				C310.373,297.448,303.814,304.255,303.814,311.988z"/>
			<path style="fill:#FFFFFF;" d="M350.834,334.635v-45.23h20.109c9.714,0,16.335,6.436,16.335,15.717
				c0,6.559-3.589,11.941-9.22,14.354c3.898,4.888,8.044,10.333,11.694,15.159h-11.694c-3.712-4.641-7.115-9.157-10.828-14.107
				h-6.683v14.107H350.834z M370.943,312.051c3.031,0,6.62-2.228,6.62-6.93c0-2.352-0.866-7.239-6.62-7.239h-10.396v14.169H370.943z
				"/>
			<path style="fill:#FFFFFF;" d="M405.712,334.635h-9.776v-45.23h9.776v18.872l17.634-18.872h12.128l-18.624,19.182l19.428,26.049
				h-12.003l-14.17-19.243l-4.393,4.579V334.635z"/>
			<path style="fill:#FFFFFF;" d="M457.991,326.715c5.383,0,8.354-2.475,8.354-5.012c0-3.589-4.826-4.517-10.086-5.445
				c-5.692-0.928-17.943-3.031-17.943-13.859c0-10.767,9.962-13.675,17.943-13.675c7.92,0,12.932,2.413,17.882,6.064l-5.445,7.425
				c-3.897-2.784-8.415-4.641-12.808-4.641c-2.847,0-7.796,0.866-7.796,4.455c0,3.217,4.888,3.96,8.972,4.826
				c7.362,1.547,19.057,2.475,19.057,14.602c0,9.405-7.301,14.046-18.005,14.046c-9.776,0-16.211-3.465-20.419-7.054l5.197-7.486
				C446.173,323.683,452.794,326.715,457.991,326.715z"/>
		</g>
	</g>
</g>
<g>
</g>
<g>
</g>
<g>
</g>
<g>
</g>
<g>
</g>
<g>
</g>
</svg>
