<?xml version="1.0" encoding="utf-8"?>
<!-- Generator: Adobe Illustrator 23.0.1, SVG Export Plug-In . SVG Version: 6.00 Build 0)  -->
<svg version="1.1" id="Layer_1" xmlns="http://www.w3.org/2000/svg" xmlns:xlink="http://www.w3.org/1999/xlink" x="0px" y="0px"
	 viewBox="0 0 150 150" style="enable-background:new 0 0 150 150;" xml:space="preserve">
<style type="text/css">
	.st0{fill:#33328E;}
	.st1{fill:#8DC63F;}
</style>
<g>
	<g>
		<g>
			<path class="st0" d="M88,27.2l6.1-4.1c0,0,0,0,0,0l6.1-4.1c0,0,0,0,0,0l6.1-4.1c0.6-0.4,1-1,1.1-1.7c0.1-0.7-0.1-1.4-0.5-2
				c-2.2-2.6-4.8-4.9-7.9-6.7c-4.3-2.5-9.1-3.8-14.2-3.8c-6.3,0-11.9,1.7-16.7,4.9C67,6.2,47,20,45.8,21.2
				c-5.7,5.4-8.5,12.3-8.5,20.3c0,8,2.9,14.9,8.5,20.3c5.7,5.4,12.6,8.2,20.7,8.2c5.1,0,9.9-1.3,14.2-3.8
				c0.5-0.3,19.3-13.1,19.9-13.4c2.4-1.6,4.5-3.5,6.2-5.6c0.5-0.6,0.7-1.3,0.6-2c-0.1-0.7-0.5-1.3-1.1-1.7l-11.3-7.7
				c-0.4-0.3-0.9-0.4-1.4-0.4c-0.6,0-1.3,0.2-1.8,0.7c-0.6,0.6-1.3,1.1-2.1,1.6c-1.5,0.9-3.1,1.3-4.9,1.3c-2.8,0-5.1-0.9-7-2.9
				c-0.4-0.4-0.7-0.8-1-1.2L88,27.2C88,27.2,88,27.2,88,27.2z M66.4,67.4c-7.5,0-13.8-2.5-18.9-7.5c-5.2-5-7.7-11.1-7.7-18.5
				c0-6.9,2.3-12.7,6.8-17.5c-2.1,4-3.2,8.4-3.2,13.3c0,8,2.9,14.9,8.5,20.3c5.7,5.4,12.6,8.2,20.7,8.2c1.2,0,2.3-0.1,3.4-0.2
				C73,66.8,69.8,67.4,66.4,67.4z M72.5,63.3c-7.5,0-13.8-2.5-18.9-7.5s-7.7-11.1-7.7-18.5c0-6.9,2.3-12.7,6.8-17.5
				c-2.1,4-3.2,8.4-3.2,13.3c0,8,2.9,14.9,8.5,20.3c5.7,5.4,12.6,8.2,20.7,8.2c1.2,0,2.3-0.1,3.4-0.2C79.1,62.7,75.9,63.3,72.5,63.3
				z M87.7,57.5c-0.4,0.2-0.8,0.3-1.2,0.4c-2.5,0.8-5.1,1.2-7.9,1.2c-7.1,0-13-2.2-18-6.7c-0.3-0.3-0.6-0.5-0.9-0.8
				c-2.3-2.2-4.1-4.7-5.4-7.5c-1.6-3.3-2.3-7-2.3-11c0-6.3,1.9-11.8,5.8-16.4c0.3-0.4,0.6-0.7,1-1.1c-0.2,0.3-0.3,0.6-0.5,0.9
				c-1.8,3.7-2.7,7.9-2.7,12.4c0,2,0.2,3.9,0.5,5.7c0.1,0.6,0.3,1.2,0.4,1.8c0.2,0.7,0.4,1.3,0.6,1.9c1.4,4.1,3.7,7.7,7,10.9
				c0.7,0.7,1.5,1.4,2.3,2c0.5,0.4,1.1,0.8,1.6,1.2c0.5,0.3,1,0.7,1.5,1c4.5,2.7,9.6,4,15.2,4c0.4,0,0.8,0,1.1,0
				c0.6,0,1.2-0.1,1.8-0.1c0.2,0,0.4,0,0.5-0.1C88,57.4,87.8,57.5,87.7,57.5z M84,41.5c0.2,0,0.5,0,0.7,0c0.5,0,1,0,1.4-0.1
				c0.7-0.1,1.3-0.2,2-0.4c0.5-0.1,1-0.3,1.5-0.5c0.4-0.2,0.8-0.4,1.2-0.6c1-0.6,1.8-1.2,2.6-2l11.3,7.7c-1.1,1.3-2.3,2.5-3.6,3.6
				c-0.4,0.3-0.8,0.7-1.3,1c-0.7,0.5-1.5,1-2.2,1.5c-0.5,0.3-1,0.6-1.6,0.8c-0.4,0.2-0.7,0.3-1.1,0.5c-0.4,0.2-0.8,0.3-1.2,0.5
				c-0.4,0.2-0.8,0.3-1.2,0.4c-1.9,0.6-3.9,1-6,1.1C86,55,85.3,55,84.7,55c-0.1,0-0.2,0-0.3,0c-0.8,0-1.6,0-2.4-0.1
				c-3.4-0.3-6.6-1.2-9.5-2.6c-0.5-0.2-0.9-0.5-1.4-0.7c-0.4-0.3-0.9-0.5-1.3-0.8c-1.1-0.7-2.1-1.5-3.2-2.4
				c-0.3-0.3-0.6-0.5-0.9-0.8c-2.3-2.2-4.1-4.7-5.4-7.5c-0.7-1.5-1.2-3.1-1.6-4.7c-0.1-0.5-0.2-1-0.3-1.5c-0.1-0.5-0.2-1-0.2-1.6
				c-0.1-1-0.2-2.1-0.2-3.2c0-4.9,1.2-9.3,3.5-13.1c0.3-0.5,0.6-1,0.9-1.4c0.3-0.5,0.7-0.9,1.1-1.4c0.1-0.1,0.2-0.3,0.3-0.4
				c0.5-0.6,1.1-1.2,1.6-1.8c0.1-0.1,0.2-0.2,0.3-0.3c0.2-0.2,0.5-0.5,0.7-0.7c0.2-0.2,0.5-0.4,0.8-0.6c0.9-0.8,1.9-1.5,2.9-2.1
				c1.4-0.9,2.8-1.6,4.3-2.2c3.1-1.2,6.6-1.9,10.3-1.9c4.6,0,8.9,1.1,12.9,3.4c2.8,1.7,5.2,3.7,7.2,6.1l-4,2.7l-1.1,0.7l-1,0.7
				l-4,2.7l-1.1,0.7l-0.2,0.2c-0.8-0.7-1.6-1.4-2.6-2c-0.4-0.3-0.9-0.5-1.3-0.7c-1.5-0.7-3.1-1-4.8-1c-1.2,0-2.3,0.1-3.4,0.4
				c-0.5,0.1-1.1,0.3-1.6,0.5c-0.5,0.2-0.9,0.4-1.4,0.7c-0.9,0.5-1.7,1.2-2.5,2c-0.3,0.3-0.6,0.7-0.9,1c-0.5,0.6-0.9,1.2-1.3,1.9
				c-0.3,0.6-0.6,1.2-0.8,1.8c0,0.1,0,0.2-0.1,0.2c-0.1,0.3-0.2,0.7-0.3,1c-0.1,0.4-0.2,0.8-0.2,1.3c-0.1,0.5-0.1,1-0.1,1.6
				c0,0.5,0,1,0.1,1.5c0.1,0.6,0.2,1.1,0.3,1.7c0.2,0.8,0.5,1.6,0.9,2.3c0.6,1.1,1.4,2.2,2.3,3.2C78.2,40.2,80.9,41.4,84,41.5z
				 M75.4,32.6c-0.4-1.1-0.6-2.2-0.6-3.5c0-0.4,0-0.9,0.1-1.3c0.9,0.2,1.7,0.6,2.5,1c0.6,0.4,1.2,0.8,1.7,1.2L75.4,32.6z M81.3,28.7
				c-0.8-0.7-1.6-1.4-2.6-2c-1-0.6-2.1-1-3.2-1.3c0.3-0.6,0.6-1.2,1-1.7c0.7-0.1,1.4-0.2,2.1-0.2c1.8,0,3.4,0.4,4.9,1.3
				c0.6,0.4,1.2,0.8,1.7,1.2L81.3,28.7z M87.4,24.5c-0.8-0.7-1.6-1.4-2.6-2c-0.4-0.3-0.9-0.5-1.3-0.7c-1.3-0.6-2.7-0.9-4.2-1
				c0.6-0.4,1.1-0.7,1.7-0.9c0.5-0.2,1-0.4,1.5-0.5c0.6-0.1,1.2-0.2,1.8-0.2c0.1,0,0.3,0,0.4,0c1.8,0,3.4,0.4,4.9,1.3
				c0.6,0.4,1.2,0.8,1.7,1.2l-2.6,1.8l-1.1,0.7L87.4,24.5z"/>
			<g>
				<path class="st1" d="M90.9,39.9c-1.9,1.1-4,1.7-6.2,1.7c-3.4,0-6.4-1.2-8.8-3.6c-2.4-2.4-3.6-5.4-3.6-8.7s1.2-6.3,3.6-8.7
					c2.4-2.4,5.4-3.6,8.8-3.6c2.2,0,4.2,0.5,6.2,1.7c1,0.6,1.8,1.2,2.6,2l11.4-7.7c-2-2.4-4.4-4.4-7.2-6.1c-4-2.3-8.3-3.4-12.9-3.4
					c-7.5,0-13.8,2.5-18.9,7.5c-5.2,5-7.7,11.1-7.7,18.5c0,7.3,2.6,13.5,7.7,18.5c5.2,5,11.5,7.5,18.9,7.5c4.6,0,8.9-1.1,12.9-3.4
					c2.8-1.6,5.2-3.6,7.1-6l-11.3-7.7C92.7,38.7,91.8,39.3,90.9,39.9z"/>
			</g>
		</g>
		<g>
			<g>
				<path class="st0" d="M14.8,90.8c0-5.1,3.8-9,9-9c3.3,0,6.2,1.7,7.7,4.3L27,88.7c-0.6-1.2-1.8-1.9-3.3-1.9
					c-2.2,0-3.8,1.6-3.8,3.9c0,2.3,1.6,3.9,3.8,3.9c1.5,0,2.8-0.7,3.3-1.9l4.5,2.5c-1.5,2.7-4.3,4.4-7.7,4.4
					C18.6,99.7,14.8,95.8,14.8,90.8z"/>
				<path class="st0" d="M32.3,90.8c0-5.1,4-9,9-9c5,0,9,3.9,9,9c0,5.1-4,9-9,9C36.3,99.7,32.3,95.8,32.3,90.8z M45.2,90.8
					c0-2.4-1.7-4-3.9-4c-2.2,0-3.9,1.6-3.9,4c0,2.4,1.7,4,3.9,4C43.5,94.8,45.2,93.2,45.2,90.8z"/>
				<path class="st0" d="M69.3,82.3v17h-5.1v-1.6c-0.9,1.3-2.6,2.1-4.9,2.1c-3.4,0-6.4-2.4-6.4-7V82.3h5.1V92c0,2.1,1.3,3.1,3,3.1
					c1.9,0,3.2-1.1,3.2-3.5v-9.3H69.3z"/>
				<path class="st0" d="M89.3,88.8v10.4h-5.1v-9.7c0-2.1-1.3-3.1-3-3.1c-1.9,0-3.2,1.1-3.2,3.5v9.3H73v-17h5.1v1.6
					c0.9-1.3,2.6-2.1,4.9-2.1C86.4,81.8,89.3,84.2,89.3,88.8z"/>
				<path class="st0" d="M99.3,87.2v6c0,1.5,1.3,1.6,3.5,1.5v4.6c-6.7,0.7-8.6-1.3-8.6-6.1v-6h-2.7v-4.9h2.7V79l5.1-1.5v4.8h3.5v4.9
					H99.3z"/>
				<path class="st0" d="M114,95.2c1.4,0,2.6-0.5,3.3-1.3l4.1,2.3c-1.7,2.3-4.2,3.5-7.4,3.5c-5.8,0-9.4-3.9-9.4-9c0-5.1,3.7-9,9-9
					c5,0,8.6,3.8,8.6,9c0,0.7-0.1,1.4-0.2,2h-12.1C110.5,94.6,112.1,95.2,114,95.2z M117.1,89c-0.5-2-2.1-2.7-3.6-2.7
					c-1.9,0-3.2,1-3.7,2.7H117.1z"/>
				<path class="st0" d="M135.2,81.9v5.8c-2.1-0.3-5.1,0.5-5.1,3.9v7.7H125v-17h5.1v3C130.8,83,133.1,81.9,135.2,81.9z"/>
				<path class="st0" d="M20,120.2c0-5.1,3.8-9,9-9c3.3,0,6.2,1.7,7.7,4.3l-4.5,2.6c-0.6-1.2-1.8-1.9-3.3-1.9
					c-2.2,0-3.8,1.6-3.8,3.9c0,2.3,1.6,3.9,3.8,3.9c1.5,0,2.8-0.7,3.3-1.9l4.5,2.5c-1.5,2.7-4.3,4.4-7.7,4.4
					C23.9,129.2,20,125.3,20,120.2z"/>
				<path class="st0" d="M55,111.7v17h-5.1v-1.6c-0.9,1.3-2.6,2.1-4.9,2.1c-3.4,0-6.4-2.4-6.4-7v-10.4h5.1v9.7c0,2.1,1.3,3.1,3,3.1
					c1.9,0,3.2-1.1,3.2-3.5v-9.3H55z"/>
				<path class="st0" d="M58.7,103.9h5.1v24.8h-5.1V103.9z"/>
				<path class="st0" d="M74,116.6v6c0,1.5,1.3,1.6,3.5,1.5v4.6c-6.7,0.7-8.6-1.3-8.6-6.1v-6h-2.7v-4.9h2.7v-3.2L74,107v4.8h3.5v4.9
					H74z"/>
				<path class="st0" d="M96.8,111.7v17h-5.1v-1.6c-0.9,1.3-2.6,2.1-4.9,2.1c-3.4,0-6.4-2.4-6.4-7v-10.4h5.1v9.7
					c0,2.1,1.3,3.1,3,3.1c1.9,0,3.2-1.1,3.2-3.5v-9.3H96.8z"/>
				<path class="st0" d="M110.8,111.4v5.8c-2.1-0.3-5.1,0.5-5.1,3.9v7.7h-5.1v-17h5.1v3C106.3,112.5,108.6,111.4,110.8,111.4z"/>
				<path class="st0" d="M121.3,124.6c1.4,0,2.6-0.5,3.3-1.3l4.1,2.3c-1.7,2.3-4.2,3.5-7.4,3.5c-5.8,0-9.4-3.9-9.4-9
					c0-5.1,3.7-9,9-9c5,0,8.6,3.8,8.6,9c0,0.7-0.1,1.4-0.2,2h-12.1C117.8,124,119.4,124.6,121.3,124.6z M124.4,118.5
					c-0.5-2-2.1-2.7-3.6-2.7c-1.9,0-3.2,1-3.7,2.7H124.4z"/>
			</g>
		</g>
	</g>
	<g>
		<path class="st1" d="M39,143.6c0-3.3,2.4-5.8,5.8-5.8c2,0,3.8,1,4.7,2.6l-2.2,1.3c-0.5-0.9-1.4-1.4-2.6-1.4c-2,0-3.2,1.3-3.2,3.3
			s1.3,3.3,3.2,3.3c1.1,0,2.1-0.5,2.6-1.4l2.2,1.3c-0.9,1.6-2.7,2.6-4.7,2.6C41.4,149.4,39,146.9,39,143.6z"/>
		<path class="st1" d="M51.4,143.6c0-3.3,2.6-5.8,5.8-5.8c3.2,0,5.8,2.5,5.8,5.8c0,3.3-2.6,5.8-5.8,5.8
			C53.9,149.4,51.4,146.9,51.4,143.6z M60.3,143.6c0-2-1.4-3.3-3.2-3.3c-1.8,0-3.2,1.3-3.2,3.3s1.4,3.3,3.2,3.3
			C58.9,146.9,60.3,145.6,60.3,143.6z"/>
		<path class="st1" d="M76.6,149.2h-2.5v-6.4l-2.9,4.7H71l-2.9-4.7v6.4h-2.5v-11.1h2.5l3,4.9l3-4.9h2.5V149.2z"/>
		<path class="st1" d="M86.8,146.7v2.4h-7v-11.1h6.9v2.4h-4.4v1.8h4v2.4h-4v2H86.8z"/>
		<path class="st1" d="M99.3,143.6c0,3.1-2.3,5.5-5.4,5.5h-4.4v-11.1h4.4C96.9,138.1,99.3,140.5,99.3,143.6z M96.8,143.6
			c0-1.9-1.2-3.1-2.9-3.1H92v6.2h1.9C95.6,146.7,96.8,145.5,96.8,143.6z"/>
		<path class="st1" d="M106.5,144.9v4.3h-2.5v-4.3l-3.7-6.8h2.9l2.1,4.3l2.1-4.3h2.9L106.5,144.9z"/>
	</g>
</g>
</svg>
