<?xml version="1.0" encoding="utf-8"?>
<!-- Generator: Adobe Illustrator 23.0.1, SVG Export Plug-In . SVG Version: 6.00 Build 0)  -->
<svg version="1.1" id="Layer_1" xmlns="http://www.w3.org/2000/svg" xmlns:xlink="http://www.w3.org/1999/xlink" x="0px" y="0px"
	 viewBox="0 0 150 150" style="enable-background:new 0 0 150 150;" xml:space="preserve">
<style type="text/css">
	.st0{fill:#FDCD0F;}
	.st1{fill:#BFB931;}
	.st2{fill:#917A2E;}
	.st3{fill:#FDF7B8;}
</style>
<g>
	<g>
		
			<image style="overflow:visible;" width="923" height="597" xlink:href="6D322E3B.png"  transform="matrix(0.24 0 0 0.24 -35.76 3.36)">
		</image>
	</g>
	<g>
		<path class="st0" d="M107.4,96.1H88.5c-0.1,0-0.3-0.1-0.3-0.3s0.1-0.3,0.3-0.3h18.9c0.1,0,0.3,0.1,0.3,0.3S107.6,96.1,107.4,96.1z
			"/>
	</g>
	<g>
		<path class="st0" d="M87.6,96.1h-2.9c-0.1,0-0.3-0.1-0.3-0.3s0.1-0.3,0.3-0.3h2.9c0.1,0,0.3,0.1,0.3,0.3S87.7,96.1,87.6,96.1z"/>
	</g>
	<circle class="st0" cx="83.9" cy="95.8" r="0.3"/>
	<path class="st1" d="M119.8,49.6c0,0,0.5-0.1,0.9,0.3c0.4,0.5,1.3,1.9,1.8,1.9c0.5,0,0.7-0.5,0.7-0.8c0,0-0.1,0.5-0.2,0.8
		c-0.1,0.3-0.3,0.3-0.5,0.3c-0.2,0-0.3-0.1-0.3-0.1l-0.3-0.4l-0.9-1.1l-0.6-0.7C120.4,49.9,120.1,49.6,119.8,49.6z"/>
	<g id="Shadows_6_">
		<path class="st2" d="M5.1,78.2c0,0,0.5-0.1,1-0.4c0.4-0.3,0.8-0.8,1-0.9C7.5,76.6,8,76.5,8,76.5s-0.4,0.1-0.6,0.3
			c0,0-0.1,0.1-0.1,0.1c0,0-0.1,0.1-0.1,0.1c0,0.1-0.1,0.1-0.1,0.2c0,0.1-0.1,0.1-0.2,0.2c0,0-0.1,0.1-0.1,0.1c0,0-0.1,0.1-0.1,0.1
			c-0.1,0.1-0.2,0.2-0.4,0.2C5.9,78.1,5.5,78.2,5.1,78.2z"/>
		<path class="st2" d="M13.5,75.9c0,0,0,0,0.1,0.3c0.5,1.4,1.8,5.9,2.2,6.3c0.4,0.5,1.8,0.4,1.9-0.6c0,0,0,0.2-0.1,0.4
			c0,0.1,0,0.2,0,0.3c0,0.1,0,0.1-0.1,0.2c-0.1,0.1-0.2,0.3-0.3,0.3c-0.1,0.1-0.2,0.1-0.3,0.2c-0.2,0.1-0.5,0.1-0.7,0
			c-0.2,0-0.3-0.1-0.4-0.2c-0.1-0.1-0.2-0.2-0.2-0.3c-0.1-0.1-0.1-0.5-0.3-1.2c-0.1-0.2-0.1-0.5-0.2-0.7c-0.3-1-0.7-2.1-0.9-3
			C13.8,76.8,13.5,75.9,13.5,75.9z"/>
		<path class="st2" d="M18.5,72.1l1.2,4.9l1,3.9l0.3,0.9c0,0.2,0.1,0.3,0.2,0.4c0,0,0,0,0.1,0.1c0.1,0.1,0.3,0.2,0.6,0.2
			c0.3,0,0.6-0.1,0.8-0.2c0.1-0.1,0.2-0.1,0.2-0.2c0.1-0.1,0.1-0.2,0.1-0.2s0-0.1,0-0.1c0,0,0-0.1,0-0.1l0.1-0.4
			c0,0-0.2,0.6-0.8,0.7c-0.1,0-0.2,0-0.4-0.1c-0.2-0.1-0.3-0.2-0.4-0.3c-0.7-0.9-1.3-3.4-1.6-4.3C19.3,74.7,18.6,72.1,18.5,72.1
			L18.5,72.1z"/>
		<path class="st2" d="M24.5,76.4c0,0,1,3.8,3.5,6.5c1.9,2.1,5.1,3.4,7.2,3.1c10.5,0,15.3-15.7,15.9-16.9c0,0-0.1,0.4-0.2,1
			c0,0.1,0,0.2-0.1,0.3c0,0.1-0.1,0.3-0.1,0.4c-0.3,1-0.6,2.3-1.1,3.4c-1.2,2.6-3.2,5.6-4.2,6.8c-1.9,2.2-4.1,4.1-6.3,5.4
			c-0.3,0.1-0.5,0.3-0.8,0.4c-0.4,0.2-0.8,0.4-1.2,0.5c-0.7,0.2-1.5,0.3-2.3,0.3c-1.3,0-2.6-0.3-4.1-1.1c-0.3-0.2-0.6-0.4-0.8-0.5
			c-0.7-0.5-1.2-1-1.6-1.5c-0.5-0.5-0.9-1.1-1.2-1.6c-0.5-0.7-0.8-1.4-1.1-2c-0.2-0.6-0.5-1-0.7-1.7C25,78.5,24.7,77.7,24.5,76.4z"
			/>
		<path class="st2" d="M52,69c0,0,0,0.4,0.1,0.7c0,0.4,0,1.9,0.1,2.4c0,0.5,0.2,2.2,0.5,2.8c0.1,0.2,0.2,0.4,0.3,0.6
			c0.3,0.6,0.8,1.3,1.8,1.8c1.4,0.8,2.7,0.7,2.7,0.7s0.3,0,0.6,0c0.3,0,0.6-0.1,0.9-0.2c0.4-0.1,0.7-0.2,1.1-0.4
			c0.4-0.2,0.7-0.4,0.9-0.5c0.7-0.5,1.7-1.2,1.7-1.2s-2.4,1.7-3.9,1.8C57.2,77.5,52.4,77.6,52,69z"/>
		<path class="st2" d="M53.7,101.4c0,0,4.1,6.1,9.6,2.7s9.8-24.8,9.8-24.8s-0.3,1.7-0.4,2.5c0,0.2-0.1,0.3-0.1,0.4
			c0,0.1-0.1,0.3-0.1,0.6c-0.1,0.4-0.2,0.9-0.3,1.4c-0.2,1-0.4,2.1-0.4,2.1s-0.4,1.7-0.9,4.1c-0.5,2.1-1.2,4.8-2.2,7.4
			c-0.6,1.4-1.2,2.9-1.9,4.1c-0.9,1.6-2,3-3.2,3.7c-0.5,0.3-0.9,0.4-1.4,0.5c-0.8,0.2-1.6,0.3-2.3,0.3c-1.6,0-3.1-0.8-4.2-1.7
			C54.4,103.4,53.8,102,53.7,101.4z"/>
		<path class="st2" d="M76.2,74.9c0.8,0.9,2.9,1.3,3.9,0.2c0.9-0.9,1.4-2.7,1.4-2.7s-0.4,1.3-0.4,1.4c0,0.1-0.1,0.6-0.4,1
			c-0.2,0.4-0.5,0.7-0.6,0.8c-0.1,0.1-0.3,0.3-0.5,0.4c-0.2,0.1-0.5,0.2-0.7,0.3c-0.4,0.1-0.7,0.1-0.7,0.1s-0.5,0-0.9-0.1
			c-0.4-0.1-0.5-0.2-0.5-0.2s-0.1,0-0.2-0.1c0,0-0.1,0-0.1-0.1c-0.1-0.1-0.3-0.2-0.3-0.3c-0.1-0.1-0.1-0.2-0.2-0.3
			c-0.1-0.2-0.3-0.4-0.3-0.5c0,0-0.1-0.2-0.2-0.3c-0.1-0.1-0.1-0.1-0.2-0.2c0,0-0.1-0.1-0.1-0.1c-0.1-0.1-0.1-0.1-0.2-0.1
			c-0.1,0-0.1,0-0.2,0C74.8,74.2,75.4,74,76.2,74.9z"/>
		<path class="st2" d="M93.4,63.2c0,0,0.2,1.3,0,2.7c-0.2,1.4-0.9,5.4-0.9,5.4l-0.4,2L92,74.5c0,0-0.3,2.2-0.4,3.1
			c0,0.4-0.1,1.3-0.1,2.3c0,1.1,0.1,2.3,0.5,3.2c0.1,0.3,0.2,0.6,0.3,0.9c0.5,1,1,1.5,1.9,2.1c0.3,0.2,0.7,0.3,1,0.4
			c0.6,0.2,1.2,0.3,1.8,0.3c0.4,0,0.7,0,1.1,0c0.3,0,0.5,0,0.7-0.1c0.3-0.1,0.6-0.1,0.9-0.2c0.3-0.1,0.6-0.2,0.9-0.3
			c0.2-0.1,0.4-0.2,0.6-0.3c0.3-0.1,0.5-0.3,0.7-0.5c0.1-0.1,0.3-0.2,0.4-0.3c0.1-0.1,0.2-0.2,0.3-0.3c0.2-0.2,0.4-0.4,0.6-0.6
			c0.1-0.1,0.1-0.2,0.2-0.2c0.1-0.1,0.2-0.3,0.3-0.4c0.5-0.7,0.5-0.8,0.5-0.8s-2.7,2-4.9,2.1C87.9,85.2,94.7,67.6,93.4,63.2z"/>
		<path class="st2" d="M104.2,82.9c0,0,0.3-0.4,0.6-0.6c0.3-0.2,0.7-0.3,1.1-0.3s0.5,0,0.7,0.1c0.2,0.1,1.5,0.3,1.7,0.3
			c0.1,0,0.3,0,0.6,0.1c0.5,0,1.3,0.1,1.9,0c0,0-2.2,0-2.8-0.3C107.6,81.8,105.7,81.2,104.2,82.9z"/>
		<path class="st2" d="M124.9,70.6l1.1,3.1l0.6,1.7l0.4,1.2c0,0,0.1,0.2,0.1,0.3c0,0.1,0.2,0.4,0.5,0.5s0.5,0.1,0.6,0.1
			s0.5,0,0.8-0.4c0,0-0.8,0.6-1.3-0.2C127.1,76.2,124.9,70.6,124.9,70.6z"/>
		<path class="st2" d="M130.6,66.8l0.4,2.4l0.4,2.4l0.4,2.1l0.3,1.3l0.3,1.2l0.2,0.9l0.1,0.2c0,0,0.1,0.5,0.8,0.6
			c0.7,0.1,1-0.3,1-0.3s0.2-0.1,0.2-0.4c0,0-0.9,0.8-1.6,0.1C132.4,76.4,130.6,66.8,130.6,66.8z"/>
		<path class="st2" d="M140.7,70c0,0,0.6,0,1.4,0.2c0.5,0.2,0.7,0.4,0.7,0.4s0.5,0.4,1,0.5c0.1,0,0.2,0,0.3,0c0.5,0,1,0,1.5-0.4
			c0.6-0.5,0.9-1.1,0.9-1.1s-1.1,1.3-2.8,0.7C141.9,69.8,140.7,70,140.7,70z"/>
		<path class="st2" d="M42.8,44.6c0,0,0.2,0,0.5,0.2c0.1,0.1,0.3,0.1,0.4,0.3c0.2,0.1,0.4,0.3,0.6,0.5c0.2,0.2,0.4,0.3,0.6,0.5
			c0.3,0.2,0.7,0.4,1,0.6c0.6,0.3,1.2,0.5,1.7,0.5c0.3,0,0.6-0.1,0.8-0.3c0.2-0.1,0.3-0.3,0.4-0.4c0.3-0.4,0.3-0.9,0.3-0.9
			s-0.6,1.1-1.7,1.1c-1.5,0-2.9-1-3.8-1.6C43.4,44.7,43,44.6,42.8,44.6z"/>
	</g>
	<g id="Highlights_6_">
		<path class="st3" d="M5.5,74.4c0-0.3-0.2-0.6-0.6-0.5C4.4,74,3.6,74.2,3.3,75c-0.3,0.7,0,1.3,0.3,1.6c0.2,0.2,0.5,0.2,0.7,0
			C4.7,76.2,5.4,75.3,5.5,74.4z"/>
		<path class="st3" d="M90.5,45c0.4-0.5,0.2-1.3-0.5-1.6c-1.1-0.5-2.9-0.9-4.3,0.3c-1.4,1-1.5,2.4-1.3,3.3c0.1,0.6,0.7,1,1.3,0.9
			C87,47.4,89.3,46.6,90.5,45z"/>
		<path class="st3" d="M100.1,54.6c0.6,0,1-0.4,0.8-0.9c-0.3-0.8-1.1-2.1-2.8-2.5c-1.5-0.4-2.5,0-3.1,0.4c-0.4,0.3-0.3,0.8,0.2,1.1
			c0.6,0.4,1.8,0.2,2.8,0.5C98.8,53.6,98.8,54.2,100.1,54.6z"/>
		<path class="st3" d="M48.2,59c0.6,0.5,2,2,1.8,1.4c-0.1-0.4-0.9-1.6-1.9-2.2c-1-0.6-2.1-0.9-2.2-0.6C45.8,58,47.2,58.2,48.2,59z"
			/>
		<path class="st3" d="M25.2,70.3c0.1,0,0.1-0.1,0-0.2c-0.1-0.1-0.2-0.2-0.4-0.2c-0.2,0-0.3,0.2-0.3,0.2c0,0.1,0,0.1,0.1,0.2
			C24.8,70.3,25,70.4,25.2,70.3z"/>
		<path class="st3" d="M15,74.4c0.1,0,0.1-0.1,0.1-0.1c0-0.1-0.1-0.3-0.4-0.4c-0.2,0-0.3,0-0.4,0.1c-0.1,0.1,0,0.1,0,0.2
			C14.5,74.3,14.8,74.4,15,74.4z"/>
		<path class="st3" d="M131,57.4c0.1,0,0.1-0.1,0.1-0.2c-0.1-0.1-0.3-0.2-0.6-0.2c-0.2,0-0.4,0.2-0.4,0.3c0,0.1,0,0.1,0.1,0.1
			C130.4,57.5,130.7,57.5,131,57.4z"/>
		<path class="st3" d="M135.1,68.3c0.1-0.1,0.1-0.2,0-0.2c-0.1,0-0.4-0.1-0.6,0.1c-0.2,0.1-0.2,0.3-0.2,0.4c0,0.1,0.1,0.1,0.2,0.1
			C134.6,68.7,134.9,68.5,135.1,68.3z"/>
		<path class="st3" d="M75.4,49.5c0.1-0.1,0.1-0.2,0-0.3c-0.2-0.1-0.5-0.1-0.9,0.1c-0.4,0.2-0.5,0.4-0.6,0.5c0,0.1,0.1,0.2,0.2,0.1
			C74.4,49.9,75,49.8,75.4,49.5z"/>
		<path class="st3" d="M34.9,42.8c0.1-0.1,0-0.1,0-0.2c-0.1-0.1-0.3-0.1-0.5,0c-0.2,0.1-0.2,0.2-0.2,0.4c0,0.1,0.1,0.1,0.1,0.1
			C34.5,43.1,34.7,43,34.9,42.8z"/>
		<path class="st3" d="M83.2,50.4c0.1,0,0.1-0.1,0.1-0.2c0-0.1-0.1-0.3-0.3-0.3c-0.2,0-0.3,0.1-0.4,0.1c0,0.1,0,0.1,0,0.2
			C82.7,50.3,83,50.4,83.2,50.4z"/>
		<path class="st3" d="M44.5,41.7c-0.1-0.3-0.8-0.4-1.8-0.5c-0.9-0.1-0.5,0.2,0.1,0.3C43.2,41.6,44.3,42.1,44.5,41.7z"/>
		<path class="st3" d="M44.5,41.8c0,0.3,0.6,0.5,1.3,0.7c0.7,0.3,0.4-0.1,0-0.3C45.5,42.1,44.7,41.5,44.5,41.8z"/>
		<path class="st3" d="M16.7,69.3c-0.1,3.5-0.2,6.4,0.1,6.4c0.2,0,0.4-2.9,0.5-6.4c0.1-1.9,0.2-3.8,0.2-5c0-1,0-1.3-0.2-1.4
			c-0.1,0-0.3,0.2-0.4,1C16.7,65,16.8,67.2,16.7,69.3z"/>
		<path class="st3" d="M123.4,67.9c0,0.4-0.1,0.9-0.2,1.3c-0.4,1.7-0.7,2.2-0.6,2.2c0.1,0,0.6-1,0.9-2.6c0.2-0.8,0.1-1.9,0.2-2.4
			c0.1-0.5,0.1-0.6,0-0.6c0,0-0.1,0.1-0.2,0.4C123.4,66.7,123.5,67.1,123.4,67.9z"/>
		<path class="st3" d="M23.3,73.7c-0.5,1.7-0.9,3.1-0.7,3.2c0.1,0,0.6-1.4,1-3.1c0.3-0.9,0.5-1.9,0.7-2.5c0.1-0.5,0.2-0.7,0-0.7
			c0,0-0.2,0-0.3,0.4C23.8,71.6,23.6,72.6,23.3,73.7z"/>
		<path class="st3" d="M32.1,80.3c0,0,1.3-0.7,3-2c0.2-0.2,0.4-0.3,0.6-0.5c0.3-0.2,0.5-0.5,0.8-0.7c0.4-0.4,0.8-0.8,1.2-1.2
			c0.3-0.3,0.6-0.7,1-1.1c0.4-0.4,0.7-1,1.1-1.4c0.2-0.3,0.4-0.6,0.6-0.9c0.3-0.4,0.5-0.9,0.7-1.3c0.3-0.5,0.5-1,0.7-1.5
			c0.2-0.5,0.4-0.9,0.5-1.4c0.1-0.5,0.3-0.9,0.4-1.3c0.4-1.5,0.4-2.7,0.4-3.4c-0.2-3.6,1,0.1,1,0.1s1,5.6-2.6,10.8
			c-1.4,1.6-2.6,2.9-3.7,3.8c-1.9,1.6-4,2.8-6.4,3.5C30.3,81.8,29.8,81.4,32.1,80.3z"/>
		<path class="st3" d="M28.1,80.3c0,0,1.6,1.7,3.1,1.3c1.5-0.5,3.7-1.5,3.7-1.5l-3.6,0.7c0,0-0.3,0.1-0.8,0.2
			C29.9,81,29,81,28.1,80.3z"/>
		<path class="st3" d="M33.7,43.2c0,0-3.7,1.2-4.8,6.6s3.4,9,5.1,9c1.7,0-3.2-3.4-2.9-8.9C31.3,46,35,43.3,33.7,43.2z"/>
		<path class="st3" d="M57.9,88.8c2.6-5.3,6.6-8.3,7.2-9.6c0.2-0.4-0.1-0.8-0.5-0.6c-1.4,0.5-5.8,5.7-7.8,10.2
			c-2.4,5-3.5,11.3-2.7,11.7C55.6,100.7,55.8,93,57.9,88.8z"/>
		<path class="st3" d="M55.8,53.7c1.5-3.2,3.6-4.8,2.6-5.2c-0.7-0.3-2.1,1.9-3.6,5.1s-2.2,6.1-1.6,6.4
			C54.5,60.6,54.3,56.9,55.8,53.7z"/>
		<path class="st3" d="M73.5,50.6c0,0-0.7,1.5-1.7,4.2c-0.8,2.4-1.7,5.5-2.6,8.2c-1.2,3.4-2.5,6.3-3,7c-1.4,2.1,1,1.8,1.6-0.4
			c0.6-2.2,5.3-16.4,5.9-17.5S74.2,49.4,73.5,50.6z"/>
		<path class="st3" d="M79.1,58.8c-1.2,4.5-1.7,8.3-1.1,8.5c1.3,0.4,1.1-4,2.3-8.5s3.6-7.7,2.1-7.9C81.8,50.8,80.3,54.3,79.1,58.8z"
			/>
		<path class="st3" d="M100.5,66c0,0-0.8,2.8-0.6,6.4c0.3,3.6,1.5,4.7,2,4.9c0.4,0.1,0.7-0.3,0.4-0.6c-0.5-0.6-1.2-2.1-1.4-5
			C101,67.2,100.7,65,100.5,66z"/>
		<path class="st3" d="M101.3,63.9c0,0,1.4-3.5,4.2-7.5c2.4-3.3,5.8-7,9-8.7c3.6-2,5.1-2.3,6-2c0.6,0.2,1.3,1.1,0.6,1.6
			c-1.1,0.8-2.8,0.1-5.2,1.4c-8.3,4.5-13.3,14.6-13.7,14.8C101.8,63.8,101.3,64.9,101.3,63.9z"/>
		<path class="st3" d="M125.2,65.7c0-0.1-0.3-0.4-0.6-0.4s-0.7,0.2-0.7,0.3s0.4-0.1,0.7-0.1S125.2,65.8,125.2,65.7z"/>
		<ellipse transform="matrix(0.1139 -0.9935 0.9935 0.1139 50.1644 185.697)" class="st3" cx="129.2" cy="64.7" rx="6.8" ry="0.3"/>
		<path class="st3" d="M143.8,67.2c-0.1,0.2,0.5,0,1.1,0.2s1,0.7,1.1,0.5c0.1-0.2-0.3-0.8-0.9-1S143.8,67,143.8,67.2z"/>
		<path class="st3" d="M41.7,59.9c0,0,0.9,0.1,1.9,2.2c1,2.1,0.3,3.8,0.3,3.8l-0.8-3.6l0-0.4c0,0,0-0.7-0.5-1.3
			c-0.3-0.3-0.5-0.5-0.7-0.6C41.8,60,41.7,59.9,41.7,59.9z"/>
	</g>
</g>
</svg>
